# Blender 4.0.2
# www.blender.org
mtllib carpet01a_arena.mtl
o carpet01a_arena
v 0.000010 0.001472 -0.000001
v 1.208873 0.001473 1.809187
v 1.380400 0.001473 1.682006
v 1.538600 0.001473 1.538586
v 1.682019 0.001473 1.380385
v 1.809200 0.001473 1.208858
v 1.918999 0.001473 1.025718
v 2.010273 0.001472 0.832675
v 2.082234 0.001473 0.631632
v 2.134094 0.001472 0.424492
v 2.165450 0.001472 0.213273
v 2.175903 0.001472 -0.000004
v 2.165450 0.001472 -0.213281
v 2.134093 0.001472 -0.424498
v 2.082233 0.001472 -0.631637
v 2.010273 0.001472 -0.832679
v 1.918998 0.001472 -1.025722
v 1.809198 0.001472 -1.208863
v 1.682017 0.001472 -1.380389
v 1.538598 0.001472 -1.538590
v 1.380397 0.001472 -1.682009
v 1.208871 0.001472 -1.809190
v 1.025731 0.001472 -1.918990
v 0.832688 0.001472 -2.010264
v 0.631645 0.001472 -2.082226
v 0.424505 0.001472 -2.134085
v 0.213287 0.001472 -2.165442
v 0.000010 0.001472 -2.175894
v -0.213268 0.001472 -2.165442
v -0.424486 0.001472 -2.134085
v -0.631626 0.001472 -2.082225
v -0.832669 0.001472 -2.010264
v -1.025711 0.001472 -1.918990
v -1.208852 0.001472 -1.809190
v -1.380378 0.001472 -1.682009
v -1.538579 0.001472 -1.538590
v -1.681998 0.001472 -1.380389
v -1.809180 0.001472 -1.208863
v -1.918980 0.001472 -1.025722
v -2.010254 0.001472 -0.832679
v -2.082215 0.001472 -0.631637
v -2.134075 0.001472 -0.424497
v -2.165432 0.001472 -0.213278
v -2.175884 0.001472 -0.000001
v -2.165432 0.001472 0.213277
v -2.134075 0.001472 0.424495
v -2.082215 0.001473 0.631635
v -2.010254 0.001472 0.832678
v -1.918979 0.001473 1.025721
v -1.809179 0.001473 1.208861
v -1.681998 0.001473 1.380388
v -1.538579 0.001473 1.538589
v -1.380378 0.001473 1.682008
v -1.208851 0.001473 1.809189
v -1.025711 0.001473 1.918989
v -0.832668 0.001473 2.010263
v -0.631625 0.001473 2.082224
v -0.424485 0.001473 2.134084
v -0.213266 0.001473 2.165440
v 0.000011 0.001473 2.175892
v 0.213289 0.001473 2.165440
v 0.424507 0.001473 2.134083
v 0.631647 0.001473 2.082223
v 0.832690 0.001473 2.010262
v 1.025732 0.001473 1.918987
v 2.375114 0.001473 3.554571
v 2.712118 0.001473 3.304693
v 2.286257 0.001473 2.785781
v 2.002170 0.001473 2.996422
v 3.022941 0.001473 3.022913
v 3.304720 0.001473 2.712089
v 2.785807 0.001472 2.286230
v 2.548273 0.001472 2.548246
v 3.554597 0.001472 2.375085
v 3.770324 0.001472 2.015262
v 3.178300 0.001472 1.698820
v 2.996448 0.001472 2.002142
v 3.949653 0.001472 1.635984
v 4.091037 0.001472 1.240989
v 3.448655 0.001472 1.046126
v 3.329471 0.001472 1.379097
v 4.192927 0.001472 0.834014
v 4.254535 0.001472 0.419026
v 3.586479 0.001472 0.353228
v 3.534546 0.001472 0.703054
v 4.275070 0.001472 -0.000008
v 4.254534 0.001472 -0.419040
v 3.586479 0.001472 -0.353242
v 3.603790 0.001472 -0.000007
v 4.192925 0.001472 -0.834026
v 4.091035 0.001472 -1.240999
v 3.448653 0.001472 -1.046134
v 3.534544 0.001472 -0.703065
v 3.949651 0.001472 -1.635993
v 3.770321 0.001472 -2.015271
v 3.178298 0.001472 -1.698828
v 3.329469 0.001472 -1.379105
v 3.554595 0.001472 -2.375093
v 3.304717 0.001472 -2.712097
v 2.785804 0.001472 -2.286237
v 2.996445 0.001472 -2.002150
v 3.022937 0.001472 -3.022920
v 2.712114 0.001472 -3.304700
v 2.286254 0.001472 -2.785787
v 2.548270 0.001472 -2.548253
v 2.375111 0.001472 -3.554577
v 2.015288 0.001472 -3.770305
v 1.698845 0.001472 -3.178282
v 2.002167 0.001472 -2.996428
v 1.636011 0.001472 -3.949634
v 1.241016 0.001472 -4.091019
v 1.046151 0.001472 -3.448636
v 1.379123 0.001472 -3.329453
v 0.834041 0.001472 -4.192910
v 0.419053 0.001472 -4.254517
v 0.353255 0.001472 -3.586462
v 0.703080 0.001472 -3.534528
v 0.000019 0.001472 -4.275053
v -0.419014 0.001472 -4.254517
v -0.834002 0.001472 -4.192909
v -0.703041 0.001472 -3.534527
v 0.000020 0.001472 -3.603773
v -1.240977 0.001472 -4.091018
v -1.046112 0.001472 -3.448636
v -1.635972 0.001472 -3.949634
v -2.015249 0.001472 -3.770304
v -1.698806 0.001472 -3.178282
v -1.379084 0.001472 -3.329452
v -2.375071 0.001472 -3.554578
v -2.712075 0.001472 -3.304700
v -2.286215 0.001472 -2.785788
v -2.002128 0.001472 -2.996428
v -3.022898 0.001472 -3.022921
v -3.304678 0.001472 -2.712098
v -2.785765 0.001472 -2.286237
v -2.548231 0.001472 -2.548254
v -3.554556 0.001472 -2.375093
v -3.770284 0.001472 -2.015271
v -3.178260 0.001472 -1.698828
v -2.996407 0.001472 -2.002150
v -3.949613 0.001472 -1.635993
v -4.090998 0.001472 -1.240998
v -3.448615 0.001472 -1.046134
v -3.329431 0.001472 -1.379106
v -4.192889 0.001472 -0.834023
v -4.254497 0.001472 -0.419035
v -3.586441 0.001472 -0.353237
v -3.534507 0.001472 -0.703063
v -4.275032 0.001472 -0.000001
v -4.254496 0.001472 0.419032
v -3.586440 0.001472 0.353234
v -3.603752 0.001472 -0.000002
v -4.192888 0.001472 0.834020
v -4.090998 0.001472 1.240995
v -3.448614 0.001472 1.046130
v -3.534506 0.001472 0.703059
v -3.949613 0.001472 1.635990
v -3.770283 0.001472 2.015268
v -3.178260 0.001472 1.698824
v -3.329431 0.001472 1.379102
v -3.554555 0.001472 2.375090
v -3.304677 0.001473 2.712095
v -2.785765 0.001472 2.286234
v -2.996406 0.001472 2.002147
v -3.022897 0.001473 3.022917
v -2.712075 0.001473 3.304697
v -2.286215 0.001473 2.785784
v -2.548231 0.001472 2.548250
v -2.375071 0.001473 3.554574
v -2.015248 0.001473 3.770302
v -1.698805 0.001473 3.178278
v -2.002127 0.001473 2.996425
v -1.635969 0.001473 3.949632
v -1.240975 0.001473 4.091015
v -1.046110 0.001473 3.448633
v -1.379082 0.001473 3.329449
v -0.833999 0.001473 4.192905
v -0.419011 0.001473 4.254514
v -0.353214 0.001473 3.586458
v -0.703039 0.001473 3.534524
v 0.000022 0.001473 4.275049
v 0.419056 0.001473 4.254513
v 0.353257 0.001473 3.586457
v 0.000022 0.001473 3.603769
v 0.834044 0.001473 4.192904
v 1.241019 0.001473 4.091013
v 1.046154 0.001473 3.448631
v 0.703083 0.001473 3.534523
v 1.636014 0.001473 3.949629
v 2.015291 0.001473 3.770299
v 1.698848 0.001473 3.178276
v 1.379126 0.001473 3.329447
vn -0.0000 1.0000 -0.0000
vt 0.498036 0.502022
vt 0.638163 0.040087
vt 0.682768 0.056041
vt 0.725590 0.076301
vt 0.766225 0.100650
vt 0.804272 0.128874
vt 0.839376 0.160683
vt 0.871185 0.195788
vt 0.899409 0.233834
vt 0.923758 0.274470
vt 0.944017 0.317291
vt 0.959971 0.361896
vt 0.971487 0.407847
vt 0.978432 0.454707
vt 0.980763 0.502022
vt 0.978432 0.549337
vt 0.971487 0.596197
vt 0.959971 0.642148
vt 0.944017 0.686753
vt 0.923758 0.729575
vt 0.899409 0.770210
vt 0.871184 0.808257
vt 0.839375 0.843361
vt 0.804271 0.875170
vt 0.766225 0.903394
vt 0.725589 0.927744
vt 0.682768 0.948003
vt 0.638163 0.963957
vt 0.592212 0.975473
vt 0.545351 0.982418
vt 0.498036 0.984748
vt 0.450721 0.982418
vt 0.403861 0.975473
vt 0.357910 0.963957
vt 0.313305 0.948003
vt 0.270483 0.927744
vt 0.229848 0.903394
vt 0.191802 0.875170
vt 0.156697 0.843361
vt 0.124888 0.808257
vt 0.096664 0.770210
vt 0.072315 0.729575
vt 0.052055 0.686753
vt 0.036101 0.642148
vt 0.024585 0.596197
vt 0.017640 0.549337
vt 0.015310 0.502022
vt 0.017640 0.454707
vt 0.024586 0.407847
vt 0.036101 0.361895
vt 0.052055 0.317290
vt 0.072315 0.274469
vt 0.096664 0.233833
vt 0.124888 0.195787
vt 0.156697 0.160683
vt 0.191802 0.128874
vt 0.229848 0.100649
vt 0.270484 0.076300
vt 0.313305 0.056041
vt 0.357910 0.040087
vt 0.403861 0.028571
vt 0.450722 0.021626
vt 0.498037 0.019296
vt 0.545352 0.021626
vt 0.592212 0.028571
vt 0.649369 0.136674
vt 0.612828 0.123605
vt 0.717737 0.173218
vt 0.684448 0.153271
vt 0.777662 0.222397
vt 0.748904 0.196339
vt 0.826841 0.282322
vt 0.803720 0.251155
vt 0.863384 0.350691
vt 0.846788 0.315611
vt 0.885887 0.424874
vt 0.876454 0.387231
vt 0.893486 0.502022
vt 0.891577 0.463262
vt 0.885887 0.579170
vt 0.891577 0.540782
vt 0.863384 0.653354
vt 0.876453 0.616814
vt 0.826840 0.721722
vt 0.846787 0.688433
vt 0.777661 0.781647
vt 0.803719 0.752890
vt 0.717736 0.830826
vt 0.748904 0.807705
vt 0.649368 0.867370
vt 0.684448 0.850773
vt 0.536797 0.895563
vt 0.612828 0.880439
vt 0.498036 0.897471
vt 0.420888 0.889873
vt 0.459276 0.895563
vt 0.346704 0.867370
vt 0.383245 0.880439
vt 0.278336 0.830826
vt 0.311625 0.850773
vt 0.218411 0.781647
vt 0.247169 0.807705
vt 0.169232 0.721722
vt 0.192353 0.752890
vt 0.132689 0.653354
vt 0.149285 0.688433
vt 0.110185 0.579170
vt 0.119619 0.616813
vt 0.102587 0.502022
vt 0.104496 0.540782
vt 0.110185 0.424873
vt 0.104496 0.463261
vt 0.132689 0.350690
vt 0.119619 0.387230
vt 0.169232 0.282322
vt 0.149285 0.315610
vt 0.218412 0.222397
vt 0.192354 0.251154
vt 0.278337 0.173218
vt 0.247169 0.196339
vt 0.346705 0.136674
vt 0.311625 0.153271
vt 0.420888 0.114171
vt 0.383245 0.123605
vt 0.498037 0.106573
vt 0.459276 0.108481
vt 0.575185 0.114171
vt 0.536797 0.108481
s 0
usemtl Material_#124
f 1/1/1 2/2/1 3/3/1
f 1/1/1 4/4/1 5/5/1
f 1/1/1 6/6/1 7/7/1
f 1/1/1 8/8/1 9/9/1
f 1/1/1 10/10/1 11/11/1
f 1/1/1 12/12/1 13/13/1
f 1/1/1 14/14/1 15/15/1
f 1/1/1 16/16/1 17/17/1
f 1/1/1 18/18/1 19/19/1
f 1/1/1 20/20/1 21/21/1
f 1/1/1 22/22/1 23/23/1
f 1/1/1 24/24/1 25/25/1
f 1/1/1 26/26/1 27/27/1
f 28/28/1 29/29/1 30/30/1 1/1/1
f 1/1/1 30/30/1 31/31/1
f 1/1/1 32/32/1 33/33/1
f 1/1/1 34/34/1 35/35/1
f 1/1/1 36/36/1 37/37/1
f 1/1/1 38/38/1 39/39/1
f 1/1/1 40/40/1 41/41/1
f 1/1/1 42/42/1 43/43/1
f 1/1/1 44/44/1 45/45/1
f 1/1/1 46/46/1 47/47/1
f 1/1/1 48/48/1 49/49/1
f 1/1/1 50/50/1 51/51/1
f 1/1/1 52/52/1 53/53/1
f 1/1/1 54/54/1 55/55/1
f 1/1/1 56/56/1 57/57/1
f 1/1/1 58/58/1 59/59/1
f 1/1/1 60/60/1 61/61/1
f 1/1/1 62/62/1 63/63/1
f 1/1/1 64/64/1 65/65/1
f 1/1/1 3/3/1 4/4/1
f 1/1/1 7/7/1 8/8/1
f 1/1/1 11/11/1 12/12/1
f 1/1/1 15/15/1 16/16/1
f 1/1/1 19/19/1 20/20/1
f 1/1/1 23/23/1 24/24/1
f 1/1/1 27/27/1 28/28/1
f 1/1/1 31/31/1 32/32/1
f 1/1/1 35/35/1 36/36/1
f 1/1/1 39/39/1 40/40/1
f 1/1/1 43/43/1 44/44/1
f 1/1/1 47/47/1 48/48/1
f 1/1/1 51/51/1 52/52/1
f 1/1/1 55/55/1 56/56/1
f 1/1/1 59/59/1 60/60/1
f 1/1/1 63/63/1 64/64/1
f 1/1/1 17/17/1 18/18/1
f 1/1/1 21/21/1 22/22/1
f 1/1/1 25/25/1 26/26/1
f 1/1/1 33/33/1 34/34/1
f 1/1/1 37/37/1 38/38/1
f 1/1/1 41/41/1 42/42/1
f 1/1/1 45/45/1 46/46/1
f 1/1/1 49/49/1 50/50/1
f 1/1/1 53/53/1 54/54/1
f 1/1/1 57/57/1 58/58/1
f 1/1/1 61/61/1 62/62/1
f 1/1/1 65/65/1 2/2/1
f 1/1/1 5/5/1 6/6/1
f 1/1/1 9/9/1 10/10/1
f 1/1/1 13/13/1 14/14/1
f 66/2/1 67/3/1 68/66/1 69/67/1
f 70/4/1 71/5/1 72/68/1 73/69/1
f 74/6/1 75/7/1 76/70/1 77/71/1
f 78/8/1 79/9/1 80/72/1 81/73/1
f 82/10/1 83/11/1 84/74/1 85/75/1
f 86/12/1 87/13/1 88/76/1 89/77/1
f 90/14/1 91/15/1 92/78/1 93/79/1
f 94/16/1 95/17/1 96/80/1 97/81/1
f 98/18/1 99/19/1 100/82/1 101/83/1
f 102/20/1 103/21/1 104/84/1 105/85/1
f 106/22/1 107/23/1 108/86/1 109/87/1
f 110/24/1 111/25/1 112/88/1 113/89/1
f 114/26/1 115/27/1 116/90/1 117/91/1
f 118/28/1 119/29/1 120/30/1 121/92/1 122/93/1
f 120/30/1 123/31/1 124/94/1 121/92/1
f 125/32/1 126/33/1 127/95/1 128/96/1
f 129/34/1 130/35/1 131/97/1 132/98/1
f 133/36/1 134/37/1 135/99/1 136/100/1
f 137/38/1 138/39/1 139/101/1 140/102/1
f 141/40/1 142/41/1 143/103/1 144/104/1
f 145/42/1 146/43/1 147/105/1 148/106/1
f 149/44/1 150/45/1 151/107/1 152/108/1
f 153/46/1 154/47/1 155/109/1 156/110/1
f 157/48/1 158/49/1 159/111/1 160/112/1
f 161/50/1 162/51/1 163/113/1 164/114/1
f 165/52/1 166/53/1 167/115/1 168/116/1
f 169/54/1 170/55/1 171/117/1 172/118/1
f 173/56/1 174/57/1 175/119/1 176/120/1
f 177/58/1 178/59/1 179/121/1 180/122/1
f 181/60/1 182/61/1 183/123/1 184/124/1
f 185/62/1 186/63/1 187/125/1 188/126/1
f 189/64/1 190/65/1 191/127/1 192/128/1
f 67/3/1 70/4/1 73/69/1 68/66/1
f 75/7/1 78/8/1 81/73/1 76/70/1
f 83/11/1 86/12/1 89/77/1 84/74/1
f 91/15/1 94/16/1 97/81/1 92/78/1
f 99/19/1 102/20/1 105/85/1 100/82/1
f 107/23/1 110/24/1 113/89/1 108/86/1
f 115/27/1 118/28/1 122/93/1 116/90/1
f 123/31/1 125/32/1 128/96/1 124/94/1
f 130/35/1 133/36/1 136/100/1 131/97/1
f 138/39/1 141/40/1 144/104/1 139/101/1
f 146/43/1 149/44/1 152/108/1 147/105/1
f 154/47/1 157/48/1 160/112/1 155/109/1
f 162/51/1 165/52/1 168/116/1 163/113/1
f 170/55/1 173/56/1 176/120/1 171/117/1
f 178/59/1 181/60/1 184/124/1 179/121/1
f 186/63/1 189/64/1 192/128/1 187/125/1
f 95/17/1 98/18/1 101/83/1 96/80/1
f 103/21/1 106/22/1 109/87/1 104/84/1
f 111/25/1 114/26/1 117/91/1 112/88/1
f 126/33/1 129/34/1 132/98/1 127/95/1
f 134/37/1 137/38/1 140/102/1 135/99/1
f 142/41/1 145/42/1 148/106/1 143/103/1
f 150/45/1 153/46/1 156/110/1 151/107/1
f 158/49/1 161/50/1 164/114/1 159/111/1
f 166/53/1 169/54/1 172/118/1 167/115/1
f 174/57/1 177/58/1 180/122/1 175/119/1
f 182/61/1 185/62/1 188/126/1 183/123/1
f 190/65/1 66/2/1 69/67/1 191/127/1
f 71/5/1 74/6/1 77/71/1 72/68/1
f 79/9/1 82/10/1 85/75/1 80/72/1
f 87/13/1 90/14/1 93/79/1 88/76/1
