# File produced by Open Asset Import Library (http://www.assimp.sf.net)
# (assimp v5.0.3443702165)

mtllib result.mtl

# 192 vertex positions
v  0.000986788189 0.147228241 -0.000133697074
v  120.887299 0.147247598 180.918701
v  138.039963 0.147250846 168.200562
v  153.860031 0.147246405 153.858643
v  168.20192 0.147249535 138.038544
v  180.919998 0.147244975 120.885849
v  191.899948 0.147247985 102.571777
v  201.027344 0.147243321 83.2674942
v  208.223434 0.147246256 63.1632347
v  213.409409 0.147241548 42.4492035
v  216.545044 0.147244439 21.3273506
v  217.590256 0.147239685 -0.00040360706
v  216.545013 0.147242561 -21.3281059
v  213.409317 0.147237822 -42.4498253
v  208.223343 0.147240743 -63.1637115
v  201.027252 0.147236049 -83.2679214
v  191.899826 0.147239015 -102.572189
v  180.919846 0.147234395 -120.886253
v  168.201706 0.147237465 -138.038925
v  153.859833 0.147232965 -153.859009
v  138.039749 0.147236153 -168.200882
v  120.8871 0.147231773 -180.919006
v  102.573059 0.14723511 -191.899002
v  83.2687988 0.147230893 -201.026428
v  63.1645432 0.147234395 -208.222549
v  42.4505386 0.147230357 -213.408524
v  21.3287029 0.147234038 -216.544205
v  0.000963444239 0.147230178 -217.589417
v  -21.3267765 0.147234038 -216.544174
v  -42.4486122 0.147230357 -213.408478
v  -63.1626205 0.147234395 -208.222519
v  -83.2668686 0.147230893 -201.026413
v  -102.571129 0.14723511 -191.899002
v  -120.885178 0.147231773 -180.919022
v  -138.037842 0.147236153 -168.200912
v  -153.857925 0.147232965 -153.859009
v  -168.199829 0.147237465 -138.03894
v  -180.917969 0.147234395 -120.886269
v  -191.89798 0.147239015 -102.572205
v  -201.025421 0.147236049 -83.2679214
v  -208.221542 0.147240743 -63.1636772
v  -213.407501 0.147237822 -42.4496651
v  -216.543198 0.147242561 -21.3278122
v  -217.588409 0.147239685 -6.40990256e-05
v  -216.543167 0.147244439 21.3276711
v  -213.407486 0.147241548 42.4495201
v  -208.221497 0.147246256 63.1635399
v  -201.025391 0.147243321 83.2677994
v  -191.897919 0.147247985 102.572067
v  -180.917938 0.147244975 120.886124
v  -168.199814 0.147249535 138.038788
v  -153.85791 0.147246405 153.858871
v  -138.037827 0.147250846 168.200775
v  -120.885147 0.147247598 180.9189
v  -102.571075 0.147251889 191.898865
v  -83.2667618 0.147248477 201.026306
v  -63.1625023 0.147252604 208.222382
v  -42.4484711 0.147249013 213.408356
v  -21.3266239 0.147252962 216.544022
v  0.00110840274 0.147249192 217.589249
v  21.3288517 0.147252962 216.544006
v  42.450695 0.147249013 213.408295
v  63.164711 0.147252604 208.22229
v  83.268959 0.147248477 201.026184
v  102.573219 0.147251889 191.898727
v  237.511368 0.147232339 355.457092
v  271.211853 0.147238865 330.46933
v  228.625717 0.147228971 278.578064
v  200.217026 0.147229895 299.642181
v  302.294067 0.147230014 302.29126
v  330.472015 0.147236288 271.208923
v  278.58075 0.147226796 228.622955
v  254.827316 0.147227943 254.824631
v  355.459717 0.147227183 237.508484
v  377.03241 0.147233233 201.526245
v  317.830048 0.147224218 169.881989
v  299.644775 0.147225544 200.214233
v  394.965332 0.147223949 163.59845
v  409.103668 0.14722985 124.098953
v  344.865479 0.147221372 104.612564
v  332.947113 0.147222832 137.909729
v  419.292755 0.147220448 83.4013748
v  425.453461 0.147226259 41.9025536
v  358.647919 0.147218347 35.3228493
v  353.45459 0.147219867 70.3054352
v  427.507019 0.147216797 -0.000796520908
v  425.453369 0.147222593 -41.9040413
v  358.647888 0.147215247 -35.3242149
v  360.378998 0.147216797 -0.000712597568
v  419.292542 0.147213146 -83.4026108
v  409.103516 0.147219002 -124.099876
v  344.865295 0.147212222 -104.613419
v  353.454407 0.147213727 -70.3065338
v  394.965149 0.147209644 -163.599304
v  377.032135 0.14721562 -201.527069
v  317.829865 0.147209376 -169.882767
v  332.946899 0.147210762 -137.910522
v  355.459473 0.147206411 -237.509308
v  330.47168 0.147212565 -271.209747
v  278.580414 0.147206798 -228.623718
v  299.644531 0.14720805 -200.214996
v  302.293732 0.14720358 -302.291992
v  271.211426 0.147209987 -330.469971
v  228.625381 0.147204623 -278.578735
v  254.827042 0.147205651 -254.825333
v  237.511063 0.147201255 -355.457703
v  201.528809 0.147207946 -377.030487
v  169.884537 0.147202909 -317.828156
v  200.216751 0.147203699 -299.642792
v  163.601074 0.147199526 -394.96344
v  124.10157 0.147206545 -409.101929
v  104.615135 0.147201717 -344.863647
v  137.912277 0.147202238 -332.945251
v  83.404068 0.147198468 -419.290985
v  41.9053078 0.14720583 -425.451721
v  35.3255272 0.147201121 -358.646179
v  70.3080444 0.147201344 -353.452789
v  0.00194763613 0.147198111 -427.50531
v  -41.901371 0.14720583 -425.451691
v  -83.4001617 0.147198468 -419.290863
v  -70.3041229 0.147201344 -353.452728
v  0.00197052443 0.147201046 -360.377289
v  -124.097672 0.147206545 -409.101837
v  -104.611221 0.147201717 -344.863647
v  -163.597183 0.147199526 -394.963409
v  -201.524887 0.147207946 -377.030457
v  -169.8806 0.147202909 -317.828156
v  -137.908371 0.147202238 -332.945221
v  -237.507126 0.147201255 -355.457794
v  -271.20752 0.147209987 -330.470032
v  -228.621475 0.147204623 -278.578766
v  -200.212784 0.147203699 -299.642822
v  -302.289795 0.14720358 -302.292084
v  -330.467834 0.147212565 -271.209808
v  -278.576538 0.147206798 -228.623734
v  -254.823105 0.147205651 -254.825363
v  -355.455566 0.147206411 -237.509338
v  -377.028381 0.14721562 -201.527069
v  -317.826019 0.147209376 -169.882797
v  -299.640686 0.14720805 -200.215027
v  -394.961334 0.147209644 -163.599304
v  -409.099792 0.147219002 -124.099823
v  -344.861511 0.147212222 -104.613396
v  -332.943115 0.147210762 -137.910583
v  -419.288879 0.147213146 -83.4023132
v  -425.449677 0.147222593 -41.903492
v  -358.644073 0.147215247 -35.3237343
v  -353.450684 0.147213727 -70.3063049
v  -427.503235 0.147216797 -0.000148022358
v  -425.449585 0.147226259 41.9031715
v  -358.644012 0.147218347 35.3233681
v  -360.375183 0.147216797 -0.000170910542
v  -419.288818 0.147220448 83.4019928
v  -409.099762 0.14722985 124.099525
v  -344.86145 0.147221372 104.613037
v  -353.450623 0.147219867 70.3059235
v  -394.961273 0.147223949 163.59903
v  -377.028259 0.147233233 201.526764
v  -317.825958 0.147224218 169.882446
v  -332.943085 0.147222832 137.910217
v  -355.455536 0.147227183 237.509033
v  -330.467743 0.147236288 271.209473
v  -278.576508 0.147226796 228.623383
v  -299.640594 0.147225544 200.214676
v  -302.289764 0.147230014 302.291718
v  -271.207458 0.147238865 330.469727
v  -228.621475 0.147228971 278.5784
v  -254.823105 0.147227943 254.825012
v  -237.507065 0.147232339 355.457428
v  -201.524765 0.147240907 377.030243
v  -169.880508 0.147230685 317.82785
v  -200.212753 0.147229895 299.642517
v  -163.596939 0.147234067 394.963196
v  -124.097458 0.147242308 409.101562
v  -104.611046 0.147231877 344.863281
v  -137.908218 0.147231355 332.944946
v  -83.39991 0.147235125 419.290558
v  -41.9010887 0.147243023 425.451416
v  -35.3213539 0.147232473 358.645813
v  -70.3039322 0.147232249 353.452423
v  0.00222229445 0.147235483 427.504944
v  41.9055519 0.147243023 425.451324
v  35.3257408 0.147232473 358.645752
v  0.00218414748 0.147232547 360.376923
v  83.4043655 0.147235125 419.290466
v  124.101868 0.147242308 409.101318
v  104.615379 0.147231877 344.863098
v  70.3082886 0.147232249 353.452301
v  163.601379 0.147234067 394.962921
v  201.529114 0.147240907 377.029938
v  169.884781 0.147230685 317.827606
v  137.912567 0.147231355 332.944733

# 128 UV coordinates
vt 0.498036444 0.502021968 0
vt 0.638163209 0.0400871858 0
vt 0.682768285 0.0560411736 0
vt 0.725589812 0.0763005465 0
vt 0.766225219 0.100649998 0
vt 0.804271519 0.128874168 0
vt 0.839375794 0.160683334 0
vt 0.871184766 0.195787668 0
vt 0.899408877 0.233834088 0
vt 0.923758268 0.274469554 0
vt 0.94401747 0.3172912 0
vt 0.959971368 0.361896187 0
vt 0.971487284 0.407847285 0
vt 0.978432477 0.454707384 0
vt 0.980762601 0.502022088 0
vt 0.978432477 0.549336851 0
vt 0.971487164 0.596197248 0
vt 0.959971189 0.642148435 0
vt 0.944017231 0.686753392 0
vt 0.923757911 0.729574919 0
vt 0.899408519 0.770210385 0
vt 0.871184409 0.808256745 0
vt 0.839375317 0.84336096 0
vt 0.804271042 0.875170052 0
vt 0.766224623 0.903394222 0
vt 0.725589216 0.927743554 0
vt 0.682767749 0.948002875 0
vt 0.638162732 0.963956833 0
vt 0.592211545 0.975472808 0
vt 0.545351267 0.98241812 0
vt 0.498036265 0.984748244 0
vt 0.450721413 0.98241812 0
vt 0.403861135 0.975472808 0
vt 0.357909948 0.963956833 0
vt 0.31330505 0.948002875 0
vt 0.270483434 0.927743614 0
vt 0.229848012 0.903394282 0
vt 0.191801593 0.875170052 0
vt 0.156697273 0.84336096 0
vt 0.124888152 0.808256745 0
vt 0.0966640115 0.770210385 0
vt 0.0723146126 0.729574919 0
vt 0.0520553105 0.686753273 0
vt 0.0361013822 0.642148316 0
vt 0.024585437 0.596197128 0
vt 0.0176400635 0.549336731 0
vt 0.0153100286 0.502021849 0
vt 0.0176401045 0.454706877 0
vt 0.0245855171 0.40784651 0
vt 0.0361014865 0.361895293 0
vt 0.0520554297 0.317290336 0
vt 0.0723147765 0.27446875 0
vt 0.0966641903 0.233833343 0
vt 0.124888361 0.195786953 0
vt 0.156697482 0.160682634 0
vt 0.191801861 0.128873572 0
vt 0.229848281 0.100649484 0
vt 0.270483673 0.0763001367 0
vt 0.313305318 0.0560408458 0
vt 0.357910275 0.0400869399 0
vt 0.403861493 0.0285710115 0
vt 0.45072183 0.0216256622 0
vt 0.498036683 0.0192956552 0
vt 0.545351684 0.0216257498 0
vt 0.592212021 0.0285711829 0
vt 0.649368763 0.136674494 0
vt 0.612828314 0.123604983 0
vt 0.717736721 0.173218042 0
vt 0.684448183 0.153270975 0
vt 0.777661622 0.222397357 0
vt 0.748904228 0.196339294 0
vt 0.826840758 0.282322466 0
vt 0.803719521 0.25115484 0
vt 0.863384128 0.350690514 0
vt 0.846787751 0.315611035 0
vt 0.885887384 0.424874067 0
vt 0.876453519 0.387230933 0
vt 0.893485725 0.502022088 0
vt 0.891576886 0.463261873 0
vt 0.885887265 0.579170346 0
vt 0.891576886 0.540782332 0
vt 0.863383889 0.65335393 0
vt 0.8764534 0.61681354 0
vt 0.82684046 0.721721947 0
vt 0.846787453 0.688433349 0
vt 0.777661264 0.781646848 0
vt 0.803719282 0.752889514 0
vt 0.717736185 0.830826104 0
vt 0.748903811 0.807704866 0
vt 0.649368346 0.867369533 0
vt 0.684447646 0.850773096 0
vt 0.536796749 0.89556253 0
vt 0.612827897 0.880438983 0
vt 0.498036295 0.897471309 0
vt 0.420888036 0.889872909 0
vt 0.459275961 0.89556253 0
vt 0.346704483 0.867369533 0
vt 0.383244812 0.880439043 0
vt 0.278336465 0.830826163 0
vt 0.311625004 0.850773156 0
vt 0.218411386 0.781646848 0
vt 0.247168839 0.807704866 0
vt 0.169232145 0.721721888 0
vt 0.192353368 0.752889514 0
vt 0.132688686 0.65335387 0
vt 0.149285108 0.688433349 0
vt 0.11018537 0.579170287 0
vt 0.119619235 0.616813481 0
vt 0.102586962 0.502021849 0
vt 0.104495734 0.540782213 0
vt 0.110185444 0.424873441 0
vt 0.104495771 0.463261455 0
vt 0.132688805 0.350689828 0
vt 0.119619325 0.387230188 0
vt 0.169232279 0.282321841 0
vt 0.149285257 0.315610379 0
vt 0.218411565 0.222396791 0
vt 0.192353532 0.251154244 0
vt 0.278336704 0.173217624 0
vt 0.247169077 0.196338803 0
vt 0.346704692 0.136674225 0
vt 0.311625212 0.153270632 0
vt 0.420888335 0.114170939 0
vt 0.383245081 0.123604797 0
vt 0.498036653 0.106572576 0
vt 0.459276319 0.108481318 0
vt 0.575185061 0.114171073 0
vt 0.536797106 0.108481377 0

# 196 vertex normals
vn 0 1 -6.51422738e-08
vn 0 0.99999994 -4.37113847e-08
vn 1.85066373e-09 1 -4.01435081e-08
vn -3.71902296e-08 1 -8.09016072e-08
vn -5.42080159e-08 1 -8.81985684e-08
vn 0 1 -5.4426831e-08
vn -4.8591378e-08 1 -6.38386055e-08
vn -6.71061855e-08 1 -6.40677627e-08
vn 0 1 -4.37113883e-08
vn -5.25949346e-08 1 -4.37111076e-08
vn -5.25947073e-08 1 1.37727341e-07
vn 0 1 -3.29959455e-08
vn -4.85914597e-08 1 -2.35843682e-08
vn -6.18454195e-08 1 -1.06543681e-08
vn -3.71902189e-08 1 -6.52114096e-09
vn -4.44873045e-08 0.99999994 1.04965743e-08
vn 0 1 -2.22805046e-08
vn -2.01272776e-08 1 4.87996132e-09
vn -2.03565715e-08 1 2.33947262e-08
vn -8.72824373e-08 1 1.74801187e-08
vn 6.8735595e-09 1 2.6076691e-08
vn 2.01273007e-08 1 4.87994711e-09
vn 3.3057038e-08 1 1.81339956e-08
vn 3.71902438e-08 1 -6.5211978e-09
vn 5.42078773e-08 1 7.75948195e-10
vn 4.85914136e-08 1 -2.35843398e-08
vn 6.71061144e-08 1 -2.33549446e-08
vn 5.2594892e-08 1 -4.37114345e-08
vn 6.97880296e-08 0.99999994 -5.05849087e-08
vn 4.85913318e-08 1 -6.38385984e-08
vn 6.18453626e-08 0.99999994 -7.67684298e-08
vn 3.71901869e-08 1 -8.09016214e-08
vn 4.44872725e-08 1 -9.79193189e-08
vn 2.01269703e-08 0.99999994 -9.23028054e-08
vn 2.03562553e-08 0.99999994 -1.10817552e-07
vn 0 1 -7.5857713e-08
vn 2.8014063e-14 0.99999994 -9.63062803e-08
vn -6.87358348e-09 0.99999994 -1.13499425e-07
vn -2.0127235e-08 1 -9.23027343e-08
vn -3.30573187e-08 0.99999994 -1.05556595e-07
vn 9.11059459e-08 1 -2.09198021e-07
vn 2.08419078e-08 1 -2.31465776e-07
vn -5.25951549e-08 1 -2.25149648e-07
vn -1.18025028e-07 1 -1.91211853e-07
vn -1.65486711e-07 1 -1.34817626e-07
vn -1.87754523e-07 1 -6.45535323e-08
vn -1.81438367e-07 1 8.883557e-09
vn -1.47500103e-07 1 7.43135189e-08
vn -9.11060667e-08 1 1.21775145e-07
vn -2.08420268e-08 1 1.44042929e-07
vn 5.25949524e-08 1 1.37726914e-07
vn 1.18024808e-07 1 1.03788516e-07
vn 1.65486568e-07 1 4.73946642e-08
vn 1.87754054e-07 1 -2.28695178e-08
vn 1.8143848e-07 1 -9.63063798e-08
vn 1.47500003e-07 0.99999994 -1.61736338e-07
vn -1.44532905e-07 1 -1.65351736e-07
vn -1.80080903e-07 1 -1.00782216e-07
vn -1.88213008e-07 1 -2.75239564e-08
vn -1.21640397e-07 1 1.00821516e-07
vn -5.70706824e-08 0.99999994 1.36369309e-07
vn 1.61874603e-08 1 1.44501541e-07
vn 8.69812311e-08 1 1.23980016e-07
vn 1.44532947e-07 1 7.7929009e-08
vn 1.80080676e-07 1 1.3359216e-08
vn 1.88212837e-07 1 -5.98989516e-08
vn 1.67691283e-07 1 -1.30692669e-07
vn 1.21639957e-07 1 -1.88244144e-07
vn 5.7070551e-08 1 -2.23792142e-07
vn -1.61876645e-08 1 -2.31924162e-07
vn -3.91218933e-08 1 -9.1381537e-08
vn -2.88817095e-08 1 -8.69356285e-08
vn -3.67592712e-08 1 -8.04706843e-08
vn -4.7670234e-08 1 -8.28332247e-08
vn -4.76701771e-08 1 -8.28332816e-08
vn -3.67592854e-08 1 -8.04706772e-08
vn -5.4386522e-08 1 -7.27814751e-08
vn -4.32244356e-08 1 -7.25928899e-08
vn -4.80283688e-08 1 -6.36053272e-08
vn -5.90128728e-08 1 -6.16125888e-08
vn -5.90128657e-08 1 -6.1612603e-08
vn -4.80283902e-08 0.99999994 -6.36052704e-08
vn -6.13712601e-08 1 -4.97558901e-08
vn -5.09866602e-08 1 -5.38531175e-08
vn -5.19855128e-08 1 -4.37112391e-08
vn -5.19853991e-08 1 5.76284549e-08
vn -6.13712885e-08 1 -3.76669789e-08
vn -5.19855092e-08 1 -4.37112959e-08
vn -5.90127378e-08 1 -2.58098858e-08
vn -5.09866034e-08 1 -3.35693784e-08
vn -4.80283724e-08 1 -2.38175275e-08
vn -5.43865539e-08 1 -1.46413193e-08
vn -5.43864935e-08 1 -1.46412074e-08
vn -4.80283688e-08 1 -2.38175257e-08
vn -4.76702375e-08 1 -4.58958027e-09
vn -4.32244072e-08 0.99999994 -1.48298298e-08
vn -3.67593671e-08 1 -6.95216329e-09
vn -3.91219395e-08 1 3.95877464e-09
vn -3.91219999e-08 1 3.9587178e-09
vn -3.67593245e-08 1 -6.95212066e-09
vn -2.90701685e-08 1 1.06750981e-08
vn -2.88817485e-08 0.99999994 -4.87140994e-10
vn -1.98939993e-08 1 4.31693437e-09
vn -1.7901435e-08 1 1.53013602e-08
vn -1.79013231e-08 1 1.53013886e-08
vn -1.98939922e-08 1 4.31693792e-09
vn -6.04447692e-09 1 1.76598647e-08
vn -1.01417825e-08 1 7.27522931e-09
vn -4.76829172e-08 1 1.26075506e-08
vn 5.97377525e-09 1 1.69409731e-08
vn 5.97377481e-09 1 1.69409731e-08
vn 5.69792533e-08 1 2.44313725e-09
vn -4.68801034e-08 1 1.26723805e-08
vn 1.79013586e-08 0.99999994 1.53014241e-08
vn 1.98940722e-08 1 4.31692726e-09
vn 2.9070101e-08 1 1.06751159e-08
vn 2.90701365e-08 0.99999994 1.06751052e-08
vn 1.9894026e-08 1 4.31695213e-09
vn 3.91218826e-08 1 3.95875333e-09
vn 2.8881562e-08 1 -4.87034413e-10
vn 3.67592357e-08 1 -6.95208158e-09
vn 4.767017e-08 1 -4.58953764e-09
vn 4.76701771e-08 1 -4.58954119e-09
vn 3.67592108e-08 1 -6.95205671e-09
vn 5.43865077e-08 1 -1.46411878e-08
vn 4.32243255e-08 0.99999994 -1.48297659e-08
vn 4.80283404e-08 1 -2.38174387e-08
vn 5.901272e-08 1 -2.58099568e-08
vn 5.90127627e-08 1 -2.58100918e-08
vn 4.80282871e-08 1 -2.38173143e-08
vn 6.13712103e-08 1 -3.76668545e-08
vn 5.09865821e-08 1 -3.35694779e-08
vn 5.1985463e-08 1 -4.37114203e-08
vn 6.13712245e-08 1 -4.97559576e-08
vn 6.13712174e-08 1 -4.97559789e-08
vn 5.1985463e-08 1 -4.37115055e-08
vn 5.90127378e-08 1 -6.16127238e-08
vn 5.09865927e-08 0.99999994 -5.38531779e-08
vn 4.8028312e-08 1 -6.36053699e-08
vn 5.43864651e-08 0.99999994 -7.27815745e-08
vn 5.43864651e-08 1 -7.27815745e-08
vn 4.80283049e-08 0.99999994 -6.36053841e-08
vn 4.76701487e-08 1 -8.28332816e-08
vn 4.32243432e-08 1 -7.25929681e-08
vn 3.67592889e-08 1 -8.04706559e-08
vn 3.91219075e-08 1 -9.13815228e-08
vn 3.91218329e-08 1 -9.13815867e-08
vn 3.67593103e-08 1 -8.04706275e-08
vn 2.9070117e-08 1 -9.80978925e-08
vn 2.88816722e-08 0.99999994 -8.69356853e-08
vn 1.98938306e-08 1 -9.17397642e-08
vn 1.79011614e-08 1 -1.02724208e-07
vn 1.79012023e-08 1 -1.02724194e-07
vn 1.98938253e-08 1 -9.17397642e-08
vn 6.04457417e-09 1 -1.0508262e-07
vn 1.01418705e-08 1 -9.46980094e-08
vn 1.4007023e-14 1 -9.56968691e-08
vn -6.04463546e-09 1 -1.05082606e-07
vn -6.04458261e-09 1 -1.05082613e-07
vn -4.38670198e-14 1 -9.56968691e-08
vn -1.79013568e-08 1 -1.02724158e-07
vn -1.0141985e-08 1 -9.46979668e-08
vn -1.98940384e-08 1 -9.17397003e-08
vn -2.9070355e-08 0.99999994 -9.80977433e-08
vn -2.90702502e-08 1 -9.80978072e-08
vn -1.98939727e-08 1 -9.17397216e-08
vn 3.48985694e-08 1 -1.52128649e-07
vn -9.24744725e-09 1 -1.57230929e-07
vn -5.19856194e-08 1 -1.45050947e-07
vn -8.68094006e-08 1 -1.17443236e-07
vn -1.0841736e-07 1 -7.86101992e-08
vn -1.13519619e-07 1 -3.44640476e-08
vn -1.01339602e-07 1 8.2741245e-09
vn -7.37316057e-08 1 4.30979981e-08
vn -3.48987719e-08 0.99999994 6.47059011e-08
vn 9.24738419e-09 0.99999994 6.98082658e-08
vn 5.1985495e-08 1 5.7628192e-08
vn 8.68093153e-08 0.99999994 3.00202139e-08
vn 1.08417353e-07 1 -8.81269813e-09
vn 1.13519462e-07 1 -5.29588675e-08
vn 1.01339644e-07 1 -9.56969188e-08
vn 7.37316697e-08 1 -1.30520789e-07
vn -9.95257139e-08 1 -9.90907409e-08
vn -1.13142612e-07 1 -5.67884264e-08
vn -1.09534348e-07 1 -1.2495164e-08
vn -5.53793953e-08 1 5.58143114e-08
vn -1.30768871e-08 1 6.9430989e-08
vn 3.12162349e-08 1 6.58229737e-08
vn 7.0757018e-08 0.99999994 4.55392062e-08
vn 9.95256428e-08 0.99999994 1.16678365e-08
vn 1.13142498e-07 1 -3.063451e-08
vn 1.09534248e-07 1 -7.4927712e-08
vn 8.92504772e-08 1 -1.14468421e-07
vn 5.53790223e-08 0.99999994 -1.43236903e-07
vn 1.3076801e-08 1 -1.56853872e-07
vn -3.12163948e-08 1 -1.53245608e-07

# Mesh 'carpet01a_arena' with 126 faces
g carpet01a_arena
usemtl Material #124
f  1/1/1 2/2/2 3/3/2
f  1/1/3 4/4/4 5/5/5
f  1/1/6 6/6/2 7/7/2
f  1/1/3 8/8/7 9/9/8
f  1/1/9 10/10/2 11/11/2
f  1/1/3 12/12/10 13/13/11
f  1/1/12 14/14/2 15/15/2
f  1/1/3 16/16/13 17/17/14
f  1/1/12 18/18/2 19/19/2
f  1/1/3 20/20/15 21/21/16
f  1/1/17 22/22/2 23/23/2
f  1/1/3 24/24/18 25/25/19
f  1/1/17 26/26/2 27/27/2
f  28/28/20 29/29/21 30/30/21 1/1/3
f  1/1/17 30/30/2 31/31/2
f  1/1/3 32/32/22 33/33/23
f  1/1/12 34/34/2 35/35/2
f  1/1/3 36/36/24 37/37/25
f  1/1/12 38/38/2 39/39/2
f  1/1/3 40/40/26 41/41/27
f  1/1/9 42/42/2 43/43/2
f  1/1/3 44/44/28 45/45/29
f  1/1/6 46/46/2 47/47/2
f  1/1/3 48/48/30 49/49/31
f  1/1/1 50/50/2 51/51/2
f  1/1/3 52/52/32 53/53/33
f  1/1/1 54/54/2 55/55/2
f  1/1/3 56/56/34 57/57/35
f  1/1/36 58/58/2 59/59/2
f  1/1/3 60/60/37 61/61/38
f  1/1/1 62/62/2 63/63/2
f  1/1/3 64/64/39 65/65/40
f  1/1/3 3/3/41 4/4/4
f  1/1/3 7/7/42 8/8/7
f  1/1/3 11/11/43 12/12/10
f  1/1/3 15/15/44 16/16/13
f  1/1/3 19/19/45 20/20/15
f  1/1/3 23/23/46 24/24/18
f  1/1/3 27/27/47 28/28/20
f  1/1/3 31/31/48 32/32/22
f  1/1/3 35/35/49 36/36/24
f  1/1/3 39/39/50 40/40/26
f  1/1/3 43/43/51 44/44/28
f  1/1/3 47/47/52 48/48/30
f  1/1/3 51/51/53 52/52/32
f  1/1/3 55/55/54 56/56/34
f  1/1/3 59/59/55 60/60/37
f  1/1/3 63/63/56 64/64/39
f  1/1/3 17/17/14 18/18/57
f  1/1/3 21/21/16 22/22/58
f  1/1/3 25/25/19 26/26/59
f  1/1/3 33/33/23 34/34/60
f  1/1/3 37/37/25 38/38/61
f  1/1/3 41/41/27 42/42/62
f  1/1/3 45/45/29 46/46/63
f  1/1/3 49/49/31 50/50/64
f  1/1/3 53/53/33 54/54/65
f  1/1/3 57/57/35 58/58/66
f  1/1/3 61/61/38 62/62/67
f  1/1/3 65/65/40 2/2/68
f  1/1/3 5/5/5 6/6/69
f  1/1/3 9/9/8 10/10/70
f  1/1/9 13/13/2 14/14/2
f  66/2/2 67/3/9 68/66/71 69/67/72
f  70/4/73 71/5/74 72/68/75 73/69/76
f  74/6/2 75/7/9 76/70/77 77/71/78
f  78/8/79 79/9/80 80/72/81 81/73/82
f  82/10/2 83/11/9 84/74/83 85/75/84
f  86/12/85 87/13/86 88/76/87 89/77/88
f  90/14/2 91/15/9 92/78/89 93/79/90
f  94/16/91 95/17/92 96/80/93 97/81/94
f  98/18/2 99/19/9 100/82/95 101/83/96
f  102/20/97 103/21/98 104/84/99 105/85/100
f  106/22/2 107/23/9 108/86/101 109/87/102
f  110/24/103 111/25/104 112/88/105 113/89/106
f  114/26/2 115/27/9 116/90/107 117/91/108
f  118/28/109 119/29/110 120/30/111 121/92/112 122/93/113
f  120/30/2 123/31/9 124/94/114 121/92/112
f  125/32/115 126/33/116 127/95/117 128/96/118
f  129/34/2 130/35/9 131/97/119 132/98/120
f  133/36/121 134/37/122 135/99/123 136/100/124
f  137/38/2 138/39/9 139/101/125 140/102/126
f  141/40/127 142/41/128 143/103/129 144/104/130
f  145/42/2 146/43/9 147/105/131 148/106/132
f  149/44/133 150/45/134 151/107/135 152/108/136
f  153/46/2 154/47/9 155/109/137 156/110/138
f  157/48/139 158/49/140 159/111/141 160/112/142
f  161/50/2 162/51/9 163/113/143 164/114/144
f  165/52/145 166/53/146 167/115/147 168/116/148
f  169/54/2 170/55/9 171/117/149 172/118/150
f  173/56/151 174/57/152 175/119/153 176/120/154
f  177/58/2 178/59/9 179/121/155 180/122/156
f  181/60/157 182/61/158 183/123/159 184/124/160
f  185/62/2 186/63/9 187/125/161 188/126/162
f  189/64/163 190/65/164 191/127/165 192/128/166
f  67/3/167 70/4/73 73/69/76 68/66/71
f  75/7/168 78/8/79 81/73/82 76/70/77
f  83/11/169 86/12/85 89/77/88 84/74/83
f  91/15/170 94/16/91 97/81/94 92/78/89
f  99/19/171 102/20/97 105/85/100 100/82/95
f  107/23/172 110/24/103 113/89/106 108/86/101
f  115/27/173 118/28/109 122/93/113 116/90/107
f  123/31/174 125/32/115 128/96/118 124/94/114
f  130/35/175 133/36/121 136/100/124 131/97/119
f  138/39/176 141/40/127 144/104/130 139/101/125
f  146/43/177 149/44/133 152/108/136 147/105/131
f  154/47/178 157/48/139 160/112/142 155/109/137
f  162/51/179 165/52/145 168/116/148 163/113/143
f  170/55/180 173/56/151 176/120/154 171/117/149
f  178/59/181 181/60/157 184/124/160 179/121/155
f  186/63/182 189/64/163 192/128/166 187/125/161
f  95/17/92 98/18/183 101/83/96 96/80/93
f  103/21/98 106/22/184 109/87/102 104/84/99
f  111/25/104 114/26/185 117/91/108 112/88/105
f  126/33/116 129/34/186 132/98/120 127/95/117
f  134/37/122 137/38/187 140/102/126 135/99/123
f  142/41/128 145/42/188 148/106/132 143/103/129
f  150/45/134 153/46/189 156/110/138 151/107/135
f  158/49/140 161/50/190 164/114/144 159/111/141
f  166/53/146 169/54/191 172/118/150 167/115/147
f  174/57/152 177/58/192 180/122/156 175/119/153
f  182/61/158 185/62/193 188/126/162 183/123/159
f  190/65/164 66/2/194 69/67/72 191/127/165
f  71/5/74 74/6/195 77/71/78 72/68/75
f  79/9/80 82/10/196 85/75/84 80/72/81
f  87/13/9 90/14/2 93/79/90 88/76/87

