# Blender 4.0.2
# www.blender.org
mtllib ceiling01_arena.mtl
o ceiling01_arena
v 13.951230 8.369987 1.374089
v 13.415087 8.369987 4.069436
v 7.480464 8.369987 2.269178
v 7.779424 8.369987 0.766211
v 12.363416 8.369988 6.608396
v 6.894032 8.369987 3.684942
v 10.836619 8.369989 8.893398
v 6.042670 8.369987 4.959096
v 8.893381 8.369989 10.836636
v 4.959090 8.369987 6.042675
v 6.608375 8.369989 12.363426
v 3.684934 8.369988 6.894037
v 4.069410 8.369989 13.415096
v 2.269168 8.369989 7.480464
v 1.374061 8.369989 16.252867
v 0.766199 8.369989 7.779421
v -1.374093 8.369989 16.252867
v -0.766214 8.369989 7.779419
v -4.069440 8.369989 13.415086
v -2.269182 8.369989 7.480458
v -6.608402 8.369989 12.363411
v -3.684947 8.369988 6.894028
v -8.893407 8.369989 10.836615
v -4.959102 8.369987 6.042663
v -10.836641 8.369989 8.893373
v -6.042681 8.369987 4.959082
v -12.363431 8.369988 6.608365
v -6.894041 8.369987 3.684926
v -13.415100 8.369987 4.069400
v -7.480468 8.369987 2.269159
v -13.951234 8.369987 1.374051
v -7.779424 8.369987 0.766190
v -13.951234 8.369987 -1.374053
v -7.779424 8.369987 -0.766192
v -4.069439 8.369989 16.252865
v 13.951230 8.369987 -1.374091
v 7.779424 8.369987 -0.766213
v 7.480464 8.369987 -2.269180
v 13.415087 8.369987 -4.069438
v 6.894032 8.369987 -3.684944
v 12.363416 8.369987 -6.608398
v 6.042670 8.369987 -4.959097
v 10.836619 8.369986 -8.893401
v 4.959090 8.369987 -6.042677
v 8.893381 8.369986 -10.836637
v 3.684934 8.369987 -6.894039
v 6.608375 8.369986 -12.363428
v 2.269168 8.369986 -7.480467
v 4.069410 8.369986 -13.415098
v 0.766199 8.369986 -7.779423
v 1.374061 8.369986 -16.252867
v -0.766214 8.369986 -7.779422
v -1.374093 8.369986 -16.252867
v -2.269182 8.369986 -7.480461
v -4.069440 8.369986 -13.415088
v -3.684947 8.369987 -6.894030
v -6.608402 8.369986 -12.363413
v -4.959102 8.369987 -6.042665
v -8.893407 8.369986 -10.836617
v -6.042681 8.369987 -4.959083
v -10.836641 8.369986 -8.893376
v -6.894041 8.369987 -3.684928
v -12.363431 8.369987 -6.608367
v -7.480468 8.369987 -2.269161
v -13.415100 8.369987 -4.069402
v 4.069409 8.369986 -16.252865
v -4.069439 8.369986 -16.252865
v 4.069409 8.369989 16.252865
vn -0.0000 -1.0000 -0.0000
vt -1.980008 0.487958
vt -1.693251 0.289028
vt -1.309923 0.977029
vt -1.469823 1.087955
vt -1.373195 0.149864
vt -1.131454 0.899429
vt -1.032139 0.075814
vt -0.941277 0.858137
vt -0.683190 0.069723
vt -0.746697 0.854741
vt -0.339758 0.131826
vt -0.555194 0.889371
vt -0.015040 0.259736
vt -0.374126 0.960695
vt 0.481530 0.238278
vt -0.210452 1.065974
vt 0.732582 0.480715
vt -0.070463 1.201161
vt 0.728465 0.977733
vt 0.040464 1.361061
vt 0.867629 1.297789
vt 0.118064 1.539530
vt 0.941679 1.638845
vt 0.159355 1.729708
vt 0.947769 1.987794
vt 0.162751 1.924287
vt 0.885666 2.331227
vt 0.128122 2.115791
vt 0.757756 2.655944
vt 0.056797 2.296858
vt 0.568954 2.949469
vt -0.048482 2.460532
vt 0.326521 3.200516
vt -0.183666 2.600519
vt 0.978808 0.718494
vt -2.222447 0.739011
vt -1.605010 1.227946
vt -1.710289 1.391620
vt -2.411248 1.032536
vt -1.781613 1.572688
vt -2.539158 1.357253
vt -1.816242 1.764191
vt -2.601260 1.700686
vt -1.812846 1.958770
vt -2.595169 2.049635
vt -1.771554 2.148948
vt -2.521118 2.390691
vt -1.693954 2.327416
vt -2.381954 2.710747
vt -1.583027 2.487317
vt -2.386069 3.207764
vt -1.443037 2.622503
vt -2.135018 3.450201
vt -1.279363 2.727782
vt -1.638447 3.428741
vt -1.098295 2.799106
vt -1.313729 3.556651
vt -0.906792 2.833735
vt -0.970296 3.618753
vt -0.712212 2.830338
vt -0.621347 3.612662
vt -0.522034 2.789047
vt -0.280291 3.538611
vt -0.343566 2.711446
vt 0.039765 3.399446
vt -2.632296 2.969985
vt -1.888791 3.687980
vt 0.235303 0.000499
s 0
usemtl Material_#177
f 1/1/1 2/2/1 3/3/1 4/4/1
f 2/2/1 5/5/1 6/6/1 3/3/1
f 5/5/1 7/7/1 8/8/1 6/6/1
f 7/7/1 9/9/1 10/10/1 8/8/1
f 9/9/1 11/11/1 12/12/1 10/10/1
f 11/11/1 13/13/1 14/14/1 12/12/1
f 13/13/1 15/15/1 16/16/1 14/14/1
f 15/15/1 17/17/1 18/18/1 16/16/1
f 17/17/1 19/19/1 20/20/1 18/18/1
f 19/19/1 21/21/1 22/22/1 20/20/1
f 21/21/1 23/23/1 24/24/1 22/22/1
f 23/23/1 25/25/1 26/26/1 24/24/1
f 25/25/1 27/27/1 28/28/1 26/26/1
f 27/27/1 29/29/1 30/30/1 28/28/1
f 29/29/1 31/31/1 32/32/1 30/30/1
f 33/33/1 34/34/1 32/32/1 31/31/1
f 19/19/1 17/17/1 35/35/1
f 36/36/1 37/37/1 38/38/1 39/39/1
f 39/39/1 38/38/1 40/40/1 41/41/1
f 41/41/1 40/40/1 42/42/1 43/43/1
f 43/43/1 42/42/1 44/44/1 45/45/1
f 45/45/1 44/44/1 46/46/1 47/47/1
f 47/47/1 46/46/1 48/48/1 49/49/1
f 49/49/1 48/48/1 50/50/1 51/51/1
f 51/51/1 50/50/1 52/52/1 53/53/1
f 53/53/1 52/52/1 54/54/1 55/55/1
f 55/55/1 54/54/1 56/56/1 57/57/1
f 57/57/1 56/56/1 58/58/1 59/59/1
f 59/59/1 58/58/1 60/60/1 61/61/1
f 61/61/1 60/60/1 62/62/1 63/63/1
f 63/63/1 62/62/1 64/64/1 65/65/1
f 65/65/1 64/64/1 34/34/1 33/33/1
f 51/51/1 66/66/1 49/49/1
f 55/55/1 67/67/1 53/53/1
f 1/1/1 4/4/1 37/37/1 36/36/1
f 13/13/1 68/68/1 15/15/1
