# File produced by Open Asset Import Library (http://www.assimp.sf.net)
# (assimp v5.0.3443702165)

mtllib result.mtl

# 68 vertex positions
v  -1388.78052 1.1701035e-05 136.783325
v  -1335.4104 2.34292165e-05 405.092865
v  -402.122345 -8.01940951e-06 121.982651
v  -418.19342 -1.15510356e-05 41.1884689
v  -1230.72119 3.44769251e-05 657.834961
v  -370.598022 -4.69268889e-06 198.089142
v  -1078.73608 4.44196048e-05 885.296936
v  -885.295532 5.28751334e-05 1078.73694
v  -266.582428 8.47442607e-07 324.832581
v  -324.83194 -1.69871601e-06 266.583252
v  -405.091064 6.40946964e-05 1335.41064
v  -136.781113 7.70943152e-05 1676.44226
v  -41.1875992 4.92839172e-06 418.193817
v  -121.981842 4.22591438e-06 402.123016
v  136.784622 7.70943298e-05 1676.4425
v  41.1894531 4.9283899e-06 418.193787
v  -657.833496 5.95186139e-05 1230.72205
v  -198.088333 2.8479335e-06 370.59848
v  405.094055 6.40946819e-05 1335.41028
v  121.983665 4.22589983e-06 402.122681
v  657.836121 5.95185738e-05 1230.72107
v  198.090134 2.84792804e-06 370.598358
v  885.298035 5.28750825e-05 1078.73572
v  266.584167 8.47417141e-07 324.832001
v  1078.73804 4.44195102e-05 885.2948
v  324.833496 -1.69874693e-06 266.58255
v  1230.72302 3.44768414e-05 657.833008
v  370.599609 -4.69271527e-06 198.088547
v  1335.4115 2.34291256e-05 405.090759
v  402.123901 -8.01943497e-06 121.982056
v  1388.78162 1.17009367e-05 136.781067
v  418.194885 -1.15510647e-05 41.1877975
v  405.094116 7.70926054e-05 1676.4032
v  -405.090881 7.70926054e-05 1676.40308
v  -418.19342 -1.51518452e-05 -41.1884689
v  -1388.78052 -2.56943167e-07 -136.783325
v  -402.122345 -1.86834714e-05 -121.982651
v  -1335.4104 -1.19851247e-05 -405.092865
v  -370.598022 -2.2010192e-05 -198.089142
v  -1230.72119 -2.30328333e-05 -657.834961
v  -266.582428 -2.75503226e-05 -324.832581
v  -885.295532 -4.14310416e-05 -1078.73694
v  -1078.73608 -3.2975513e-05 -885.296936
v  -324.83194 -2.50041649e-05 -266.583252
v  -41.1875992 -3.16312726e-05 -418.193817
v  -136.781113 -6.94649207e-05 -1676.44226
v  -405.091064 -5.26506083e-05 -1335.41064
v  -121.981842 -3.09287934e-05 -402.123016
v  41.1894531 -3.16312726e-05 -418.193787
v  136.784622 -6.94649352e-05 -1676.4425
v  1388.78162 -2.56844487e-07 -136.781067
v  418.194885 -1.51518161e-05 -41.1877975
v  -198.088333 -2.95508144e-05 -370.59848
v  -657.833496 -4.80745221e-05 -1230.72205
v  121.983665 -3.09287789e-05 -402.122681
v  405.094055 -5.26505901e-05 -1335.41028
v  198.090134 -2.95508089e-05 -370.598358
v  657.836121 -4.8074482e-05 -1230.72107
v  266.584167 -2.75502971e-05 -324.832001
v  885.298035 -4.14309907e-05 -1078.73572
v  324.833496 -2.50041339e-05 -266.58255
v  1078.73804 -3.29754184e-05 -885.2948
v  370.599609 -2.20101647e-05 -198.088547
v  1230.72302 -2.30327478e-05 -657.833008
v  402.123901 -1.86834459e-05 -121.982056
v  1335.4115 -1.19850338e-05 -405.090759
v  405.094116 -6.94632108e-05 -1676.4032
v  -405.090881 -6.94632108e-05 -1676.40308

# 68 UV coordinates
vt -4.88353634 3.12522531 0
vt -4.78318405 3.62973309 0
vt -3.02830362 3.0973947 0
vt -3.05852222 2.94547606 0
vt -4.58633327 4.10496902 0
vt -2.96902752 3.2404995 0
vt -4.30055332 4.53267002 0
vt -3.93682384 4.8963995 0
vt -2.77344513 3.47881794 0
vt -2.88297272 3.36929035 0
vt -3.03388548 5.37902832 0
vt -2.52937722 6.02006531 0
vt -2.34963012 3.65436697 0
vt -2.50154901 3.62414789 0
vt -2.01498485 6.01885605 0
vt -2.19473481 3.65436697 0
vt -3.50912237 5.18217945 0
vt -2.64465404 3.56487274 0
vt -1.51047778 5.37902737 0
vt -2.04281592 3.62414789 0
vt -1.03524196 5.18217754 0
vt -1.89971137 3.56487226 0
vt -0.607540488 4.89639664 0
vt -1.77092099 3.47881699 0
vt -0.243811369 4.53266525 0
vt -1.6613934 3.36928892 0
vt 0.0419688225 4.10496426 0
vt -1.5753386 3.2404983 0
vt 0.238817215 3.62972879 0
vt -1.51606274 3.09739399 0
vt 0.339169502 3.1252203 0
vt -1.48584437 2.94547486 0
vt -1.51047778 6.01764727 0
vt -3.03315592 6.02127361 0
vt -3.05852199 2.79058123 0
vt -4.88353634 2.61083198 0
vt -3.02830338 2.63866258 0
vt -4.78318405 2.1063242 0
vt -2.96902752 2.49555779 0
vt -4.58633327 1.6310885 0
vt -2.77344489 2.25723958 0
vt -3.93682361 0.839658141 0
vt -4.30055332 1.20338726 0
vt -2.88297248 2.36676693 0
vt -2.34963012 2.08169031 0
vt -2.52937722 -0.284007221 0
vt -3.03388548 0.357029706 0
vt -2.50154901 2.11190939 0
vt -2.19473505 2.08169055 0
vt -2.01498508 -0.28279838 0
vt 0.339169085 2.61083698 0
vt -1.48584437 2.79058242 0
vt -2.64465427 2.17118454 0
vt -3.50912213 0.55387795 0
vt -2.04281616 2.11190915 0
vt -1.51047802 0.3570306 0
vt -1.89971149 2.17118526 0
vt -1.0352422 0.553880155 0
vt -1.77092111 2.2572403 0
vt -0.607540727 0.839661002 0
vt -1.66139352 2.36676836 0
vt -0.243811727 1.20339203 0
vt -1.57533872 2.49555898 0
vt 0.0419686139 1.63109291 0
vt -1.51606286 2.63866329 0
vt 0.238816679 2.10632873 0
vt -1.51047802 -0.281589538 0
vt -3.03315592 -0.285216063 0

# 85 vertex normals
vn 1.92738945e-08 1 -4.7545214e-08
vn 1.92738909e-08 0.99999994 -4.75452104e-08
vn 1.92738927e-08 0.99999994 -4.75452069e-08
vn 1.92738927e-08 1 -4.7545214e-08
vn 1.81556086e-08 1 -5.12316873e-08
vn 1.81556068e-08 1 -5.12316873e-08
vn 1.38956811e-08 1 -5.76071102e-08
vn 1.38956811e-08 0.99999994 -5.76071066e-08
vn 1.38956819e-08 1 -5.76071102e-08
vn 1.90170937e-08 1 -5.69613618e-08
vn 1.90170955e-08 1 -5.69613618e-08
vn 1.90170919e-08 0.99999994 -5.69613583e-08
vn 6.2384218e-15 1 -5.73542707e-08
vn 6.23842137e-15 0.99999994 -5.73542671e-08
vn 6.23842137e-15 1 -5.73542707e-08
vn 1.63396265e-08 1 -5.46291581e-08
vn 1.091776e-08 1 -6.00510219e-08
vn 1.09177609e-08 1 -6.00510219e-08
vn 7.52027596e-09 1 -6.18670128e-08
vn -1.90171257e-08 1 -5.69613334e-08
vn -1.90171239e-08 1 -5.69613334e-08
vn -1.90171239e-08 0.99999994 -5.69613299e-08
vn -7.5203026e-09 1 -6.18670057e-08
vn -1.09177964e-08 1 -6.00510006e-08
vn -1.09177947e-08 1 -6.00510006e-08
vn -1.09177956e-08 1 -6.00510006e-08
vn -1.09177956e-08 1 -6.00510077e-08
vn -1.38957343e-08 1 -5.76070676e-08
vn -1.38957326e-08 0.99999994 -5.76070605e-08
vn -1.38957335e-08 1 -5.76070676e-08
vn -1.63396301e-08 1 -5.46291687e-08
vn -1.63396283e-08 0.99999994 -5.46291652e-08
vn -1.63396301e-08 0.99999994 -5.46291652e-08
vn -1.81556388e-08 0.99999994 -5.12316483e-08
vn -1.81556388e-08 1 -5.12316518e-08
vn -1.92739087e-08 1 -4.75452069e-08
vn -1.92739105e-08 1 -4.75452069e-08
vn 8.19435177e-13 1 -3.81178751e-08
vn 8.19435123e-13 1 -3.81178751e-08
vn 8.19435069e-13 0.99999994 -3.81178715e-08
vn -8.16890772e-13 1 -3.8117868e-08
vn -8.16890717e-13 1 -3.8117868e-08
vn 1.96514929e-08 1 -4.37113883e-08
vn 1.92738909e-08 0.99999994 -3.98775626e-08
vn 1.92738909e-08 0.99999994 -3.9877559e-08
vn 1.92738909e-08 1 -3.98775626e-08
vn 1.81556086e-08 1 -3.61910892e-08
vn 1.81556103e-08 1 -3.61910892e-08
vn 1.81556121e-08 1 -3.61910892e-08
vn 1.38956828e-08 1 -2.98156664e-08
vn 1.38956819e-08 0.99999994 -2.98156628e-08
vn 1.38956837e-08 1 -2.98156664e-08
vn 1.90170919e-08 1 -3.04614147e-08
vn 1.90170919e-08 0.99999994 -3.04614112e-08
vn 6.23842137e-15 1 -3.00685059e-08
vn 6.23842137e-15 0.99999994 -3.00685024e-08
vn 6.2384218e-15 1 -3.00685059e-08
vn -1.96515018e-08 1 -4.37113883e-08
vn -1.96515018e-08 0.99999994 -4.37113847e-08
vn 1.63396248e-08 1 -3.27936185e-08
vn 1.09177609e-08 1 -2.73717582e-08
vn 1.09177627e-08 1 -2.73717582e-08
vn 1.09177618e-08 1 -2.73717582e-08
vn 7.52027862e-09 1 -2.5555762e-08
vn -1.90171239e-08 1 -3.04614431e-08
vn -1.90171257e-08 1 -3.04614431e-08
vn -7.52030616e-09 1 -2.55557726e-08
vn -1.09177956e-08 1 -2.73717742e-08
vn -1.09177947e-08 1 -2.73717742e-08
vn -1.09177964e-08 1 -2.73717742e-08
vn -1.09177956e-08 1 -2.73717724e-08
vn -1.38957361e-08 1 -2.9815709e-08
vn -1.38957352e-08 0.99999994 -2.9815709e-08
vn -1.38957352e-08 1 -2.9815709e-08
vn -1.63396319e-08 0.99999994 -3.27936043e-08
vn -1.63396319e-08 1 -3.27936078e-08
vn -1.81556388e-08 1 -3.61911248e-08
vn -1.81556388e-08 0.99999994 -3.61911212e-08
vn -1.92739105e-08 1 -3.98775697e-08
vn -1.92739087e-08 1 -3.98775697e-08
vn 8.19435177e-13 1 -4.93049015e-08
vn 8.19435069e-13 0.99999994 -4.93048979e-08
vn 8.19435123e-13 1 -4.93049015e-08
vn -8.16890772e-13 1 -4.93049086e-08
vn -8.16890717e-13 1 -4.93049086e-08

# Mesh 'ground01_arena' with 36 faces
g ground01_arena
usemtl Material #140
f  1/1/1 2/2/2 3/3/3 4/4/4
f  2/2/5 5/5/5 6/6/6 3/3/5
f  7/7/7 8/8/8 9/9/9 10/10/7
f  11/11/10 12/12/11 13/13/12 14/14/10
f  12/12/13 15/15/14 16/16/15 13/13/13
f  5/5/16 7/7/16 10/10/16 6/6/16
f  8/8/17 17/17/18 18/18/18 9/9/18
f  17/17/19 11/11/19 14/14/19 18/18/19
f  15/15/20 19/19/21 20/20/22 16/16/22
f  19/19/23 21/21/23 22/22/23 20/20/23
f  21/21/24 23/23/25 24/24/26 22/22/27
f  23/23/28 25/25/29 26/26/30 24/24/29
f  25/25/31 27/27/31 28/28/32 26/26/33
f  27/27/34 29/29/35 30/30/35 28/28/35
f  29/29/36 31/31/36 32/32/37 30/30/36
f  19/19/38 15/15/39 33/33/40
f  11/11/41 34/34/42 12/12/41
f  1/1/43 4/4/43 35/35/43 36/36/43
f  37/37/44 38/38/45 36/36/46 35/35/46
f  39/39/47 40/40/48 38/38/48 37/37/49
f  41/41/50 42/42/51 43/43/52 44/44/52
f  45/45/53 46/46/53 47/47/53 48/48/54
f  49/49/55 50/50/56 46/46/57 45/45/57
f  32/32/58 31/31/59 51/51/59 52/52/58
f  44/44/60 43/43/60 40/40/60 39/39/60
f  53/53/61 54/54/62 42/42/63 41/41/62
f  48/48/64 47/47/64 54/54/64 53/53/64
f  55/55/65 56/56/66 50/50/66 49/49/65
f  57/57/67 58/58/67 56/56/67 55/55/67
f  59/59/68 60/60/69 58/58/70 57/57/71
f  61/61/72 62/62/73 60/60/74 59/59/73
f  63/63/75 64/64/76 62/62/76 61/61/75
f  65/65/77 66/66/77 64/64/78 63/63/77
f  52/52/79 51/51/80 66/66/80 65/65/80
f  56/56/81 67/67/82 50/50/83
f  47/47/84 46/46/84 68/68/85

