# Blender 4.0.2
# www.blender.org
mtllib ground01_arena.mtl
o ground01_arena
v -13.887805 0.000000 1.367833
v -13.354104 0.000001 4.050929
v -4.021224 0.000000 1.219826
v -4.181934 -0.000000 0.411885
v -12.307212 0.000001 6.578350
v -3.705980 0.000000 1.980891
v -10.787360 0.000001 8.852969
v -8.852955 0.000001 10.787369
v -2.665824 0.000000 3.248326
v -3.248319 0.000000 2.665833
v -4.050910 0.000002 13.354106
v -1.367811 0.000002 16.764421
v -0.411876 0.000000 4.181938
v -1.219818 0.000000 4.021230
v 1.367846 0.000002 16.764425
v 0.411895 0.000000 4.181938
v -6.578335 0.000002 12.307220
v -1.980883 0.000000 3.705985
v 4.050941 0.000002 13.354102
v 1.219837 0.000000 4.021227
v 6.578361 0.000002 12.307210
v 1.980901 0.000000 3.705983
v 8.852981 0.000001 10.787357
v 2.665842 0.000000 3.248320
v 10.787380 0.000001 8.852948
v 3.248335 0.000000 2.665825
v 12.307230 0.000001 6.578330
v 3.705996 0.000000 1.980885
v 13.354115 0.000001 4.050908
v 4.021239 0.000000 1.219820
v 13.887815 0.000000 1.367811
v 4.181949 -0.000000 0.411878
v 4.050941 0.000002 16.764032
v -4.050909 0.000002 16.764030
v -4.181934 -0.000000 -0.411885
v -13.887805 -0.000000 -1.367833
v -4.021224 -0.000000 -1.219826
v -13.354104 -0.000000 -4.050929
v -3.705980 -0.000000 -1.980891
v -12.307212 -0.000001 -6.578350
v -2.665824 -0.000001 -3.248326
v -8.852955 -0.000001 -10.787369
v -10.787360 -0.000001 -8.852969
v -3.248319 -0.000000 -2.665833
v -0.411876 -0.000001 -4.181938
v -1.367811 -0.000002 -16.764421
v -4.050910 -0.000002 -13.354106
v -1.219818 -0.000001 -4.021230
v 0.411895 -0.000001 -4.181938
v 1.367846 -0.000002 -16.764425
v 13.887815 -0.000000 -1.367811
v 4.181949 -0.000000 -0.411878
v -1.980883 -0.000001 -3.705985
v -6.578335 -0.000001 -12.307220
v 1.219837 -0.000001 -4.021227
v 4.050941 -0.000002 -13.354102
v 1.980901 -0.000001 -3.705983
v 6.578361 -0.000001 -12.307210
v 2.665842 -0.000001 -3.248320
v 8.852981 -0.000001 -10.787357
v 3.248335 -0.000000 -2.665825
v 10.787380 -0.000001 -8.852948
v 3.705996 -0.000000 -1.980885
v 12.307230 -0.000001 -6.578330
v 4.021239 -0.000000 -1.219820
v 13.354115 -0.000000 -4.050908
v 4.050941 -0.000002 -16.764032
v -4.050909 -0.000002 -16.764030
vn -0.0000 1.0000 -0.0000
vt -4.883536 3.125225
vt -4.783184 3.629733
vt -3.028304 3.097395
vt -3.058522 2.945476
vt -4.586333 4.104969
vt -2.969028 3.240499
vt -4.300553 4.532670
vt -3.936824 4.896399
vt -2.773445 3.478818
vt -2.882973 3.369290
vt -3.033885 5.379028
vt -2.529377 6.020065
vt -2.349630 3.654367
vt -2.501549 3.624148
vt -2.014985 6.018856
vt -2.194735 3.654367
vt -3.509122 5.182179
vt -2.644654 3.564873
vt -1.510478 5.379027
vt -2.042816 3.624148
vt -1.035242 5.182178
vt -1.899711 3.564872
vt -0.607540 4.896397
vt -1.770921 3.478817
vt -0.243811 4.532665
vt -1.661393 3.369289
vt 0.041969 4.104964
vt -1.575339 3.240498
vt 0.238817 3.629729
vt -1.516063 3.097394
vt 0.339170 3.125220
vt -1.485844 2.945475
vt -1.510478 6.017647
vt -3.033156 6.021274
vt -3.058522 2.790581
vt -4.883536 2.610832
vt -3.028303 2.638663
vt -4.783184 2.106324
vt -2.969028 2.495558
vt -4.586333 1.631088
vt -2.773445 2.257240
vt -3.936824 0.839658
vt -4.300553 1.203387
vt -2.882972 2.366767
vt -2.349630 2.081690
vt -2.529377 -0.284007
vt -3.033885 0.357030
vt -2.501549 2.111909
vt -2.194735 2.081691
vt -2.014985 -0.282798
vt 0.339169 2.610837
vt -1.485844 2.790582
vt -2.644654 2.171185
vt -3.509122 0.553878
vt -2.042816 2.111909
vt -1.510478 0.357031
vt -1.899711 2.171185
vt -1.035242 0.553880
vt -1.770921 2.257240
vt -0.607541 0.839661
vt -1.661394 2.366768
vt -0.243812 1.203392
vt -1.575339 2.495559
vt 0.041969 1.631093
vt -1.516063 2.638663
vt 0.238817 2.106329
vt -1.510478 -0.281590
vt -3.033156 -0.285216
s 0
usemtl 
f 1/1/1 2/2/1 3/3/1 4/4/1
f 2/2/1 5/5/1 6/6/1 3/3/1
f 7/7/1 8/8/1 9/9/1 10/10/1
f 11/11/1 12/12/1 13/13/1 14/14/1
f 12/12/1 15/15/1 16/16/1 13/13/1
f 5/5/1 7/7/1 10/10/1 6/6/1
f 8/8/1 17/17/1 18/18/1 9/9/1
f 17/17/1 11/11/1 14/14/1 18/18/1
f 15/15/1 19/19/1 20/20/1 16/16/1
f 19/19/1 21/21/1 22/22/1 20/20/1
f 21/21/1 23/23/1 24/24/1 22/22/1
f 23/23/1 25/25/1 26/26/1 24/24/1
f 25/25/1 27/27/1 28/28/1 26/26/1
f 27/27/1 29/29/1 30/30/1 28/28/1
f 29/29/1 31/31/1 32/32/1 30/30/1
f 19/19/1 15/15/1 33/33/1
f 11/11/1 34/34/1 12/12/1
f 1/1/1 4/4/1 35/35/1 36/36/1
f 37/37/1 38/38/1 36/36/1 35/35/1
f 39/39/1 40/40/1 38/38/1 37/37/1
f 41/41/1 42/42/1 43/43/1 44/44/1
f 45/45/1 46/46/1 47/47/1 48/48/1
f 49/49/1 50/50/1 46/46/1 45/45/1
f 32/32/1 31/31/1 51/51/1 52/52/1
f 44/44/1 43/43/1 40/40/1 39/39/1
f 53/53/1 54/54/1 42/42/1 41/41/1
f 48/48/1 47/47/1 54/54/1 53/53/1
f 55/55/1 56/56/1 50/50/1 49/49/1
f 57/57/1 58/58/1 56/56/1 55/55/1
f 59/59/1 60/60/1 58/58/1 57/57/1
f 61/61/1 62/62/1 60/60/1 59/59/1
f 63/63/1 64/64/1 62/62/1 61/61/1
f 65/65/1 66/66/1 64/64/1 63/63/1
f 52/52/1 51/51/1 66/66/1 65/65/1
f 56/56/1 67/67/1 50/50/1
f 47/47/1 46/46/1 68/68/1
