# File produced by Open Asset Import Library (http://www.assimp.sf.net)
# (assimp v5.0.3443702165)

mtllib result.mtl

# 103 vertex positions
v  0.000835418701 -1.33514404e-05 5.83609983e-13
v  -1335.4104 -1.19851247e-05 -405.092865
v  -1388.78052 -2.56943167e-07 -136.783325
v  -1230.72119 -2.30328333e-05 -657.834961
v  -885.295532 -4.14310416e-05 -1078.73694
v  -1078.73608 -3.2975513e-05 -885.296936
v  136.784622 -6.87907959e-05 -1661.02014
v  -136.781113 -6.87907886e-05 -1661.0199
v  -657.833496 -4.80745221e-05 -1230.72205
v  885.298035 -4.14309907e-05 -1078.73572
v  657.836121 -4.8074482e-05 -1230.72107
v  1078.73804 -3.29754184e-05 -885.2948
v  1230.72302 -2.30327478e-05 -657.833008
v  1335.4115 -1.19850338e-05 -405.090759
v  1388.78162 -2.56844487e-07 -136.781067
v  -1388.78052 1.1701035e-05 136.783325
v  -1335.4104 2.34292165e-05 405.092865
v  -1230.72119 3.44769251e-05 657.834961
v  -1078.73608 4.44196048e-05 885.296936
v  -885.295532 5.28751334e-05 1078.73694
v  -136.781113 7.64201832e-05 1661.0199
v  136.784622 7.64201905e-05 1661.02014
v  -657.833496 5.95186139e-05 1230.72205
v  657.836121 5.95185738e-05 1230.72107
v  885.298035 5.28750825e-05 1078.73572
v  1078.73804 4.44195102e-05 885.2948
v  1230.72302 3.44768414e-05 657.833008
v  1335.4115 2.34291256e-05 405.090759
v  1388.78162 1.17009367e-05 136.781067
v  -1352.4425 1.09683169e-05 131.437958
v  -1388.78052 1.1151431e-05 124.209862
v  -471.282776 6.14920646e-05 1282.95264
v  -475.76297 6.27862173e-05 1305.47595
v  -267.022705 6.7478868e-05 1419.43494
v  -288.474457 6.80422017e-05 1433.76855
v  -288.474365 7.64184733e-05 1660.98071
v  -239.874756 5.96664504e-05 1282.95264
v  -267.022705 5.81339154e-05 1242.32288
v  460.875 6.14900564e-05 1283.87964
v  465.970642 6.29619753e-05 1309.49695
v  288.47757 7.64184733e-05 1660.98083
v  288.477539 6.83328108e-05 1441.65173
v  256.61499 6.72414972e-05 1420.36182
v  229.467041 5.94290941e-05 1283.87964
v  256.61499 5.80690794e-05 1243.24976
v  1358.23279 9.92440619e-08 -119.036362
v  1388.78162 7.84415079e-07 -112.959831
v  256.61499 -5.68698779e-05 -1418.66125
v  288.477539 -5.76143975e-05 -1439.95105
v  288.47757 -6.87890788e-05 -1660.98083
v  229.467041 -5.27506272e-05 -1282.17896
v  256.61499 -5.05586686e-05 -1241.54919
v  460.875 -5.06975484e-05 -1282.17908
v  466.283386 -5.15122701e-05 -1309.36853
v  -288.474365 -6.87890788e-05 -1660.98071
v  -288.474457 -5.75904269e-05 -1439.47693
v  -258.997559 -5.68443866e-05 -1419.78113
v  -463.25769 -5.07198238e-05 -1283.29883
v  -468.280121 -5.14764142e-05 -1308.54822
v  -231.849487 -5.27251505e-05 -1283.29895
v  -258.997559 -5.05331845e-05 -1242.66907
v  -436.109741 -4.96018474e-05 -1242.66907
v  -231.849609 -5.61407469e-05 -1379.15125
v  -222.316406 -5.46942647e-05 -1331.2251
v  -299.627441 -4.94723463e-05 -1215.52112
v  -395.479797 -4.8972197e-05 -1215.52112
v  -347.55365 -4.8926715e-05 -1205.98792
v  -1388.78052 8.34751518e-07 -111.808266
v  -1352.4425 1.97364898e-08 -119.036354
v  -1236.73853 1.81003054e-06 -41.7253876
v  -1227.20532 3.77402193e-06 6.20079994
v  -1236.7384 5.99986652e-06 54.1269302
v  -1263.88647 4.06892468e-07 -82.3552399
v  -1263.88647 8.148706e-06 94.7568054
v  -1304.51636 9.89339333e-06 121.904823
v  -1304.51636 -2.21773917e-07 -109.503235
v  -239.874634 6.46305343e-05 1378.80505
v  -444.134827 5.90580748e-05 1242.32288
v  -403.505005 5.7314377e-05 1215.17493
v  -307.652588 5.68142277e-05 1215.17493
v  -355.578796 5.65264381e-05 1205.64172
v  -230.341553 6.18871854e-05 1330.87891
v  229.467041 6.43931708e-05 1379.73206
v  219.933838 6.16498073e-05 1331.80579
v  433.727051 5.90560521e-05 1243.24976
v  393.097168 5.7312358e-05 1216.10181
v  297.244873 5.6812205e-05 1216.10181
v  345.171021 5.65244191e-05 1206.5686
v  433.727051 -4.95795721e-05 -1241.54919
v  297.244751 -4.94500673e-05 -1214.40125
v  345.171021 -4.89044396e-05 -1204.86804
v  393.09729 -4.89499143e-05 -1214.40125
v  229.467041 -5.61662309e-05 -1378.03137
v  219.933838 -5.47197524e-05 -1330.10522
v  1388.78162 1.12017688e-05 125.36145
v  1358.23279 1.1047825e-05 131.437958
v  1310.30676 -1.42265435e-07 -109.50325
v  1242.52893 6.07937909e-06 54.1269608
v  1232.99573 3.85353042e-06 6.20078087
v  1242.52893 1.88953959e-06 -41.7253952
v  1269.67688 8.22821676e-06 94.7568283
v  1269.67688 4.86401177e-07 -82.3552551
v  1310.30652 9.97290044e-06 121.904846

# 91 UV coordinates
vt -2.27218294 2.86802888 0
vt -4.78318405 2.1063242 0
vt -4.88353634 2.61083198 0
vt -4.58633327 1.6310885 0
vt -3.93682361 0.839658141 0
vt -4.30055332 1.20338726 0
vt -2.01498508 -0.28279838 0
vt -2.52937722 -0.284007221 0
vt -3.50912213 0.55387795 0
vt -0.607540727 0.839661002 0
vt -1.0352422 0.553880155 0
vt -0.243811727 1.20339203 0
vt 0.0419686139 1.63109291 0
vt 0.238816679 2.10632873 0
vt 0.339169085 2.61083698 0
vt -4.81520939 2.61756158 0
vt -4.85585356 2.61355829 0
vt -3.26275659 0.497713566 0
vt -3.27486062 0.45684433 0
vt -2.9656496 0.270328522 0
vt -3.02337217 0.243394151 0
vt -3.03315592 -0.285216063 0
vt -2.94080305 0.57280308 0
vt -2.96160197 0.595316947 0
vt -1.29587293 0.498108655 0
vt -1.2842567 0.458886564 0
vt -1.51047802 -0.281589538 0
vt -1.51047802 0.221150771 0
vt -1.58917975 0.257219285 0
vt -1.70447826 0.456813842 0
vt -1.5960114 0.607934654 0
vt 0.281727374 2.61649442 0
vt 0.322372258 2.61249137 0
vt -1.58692181 0.260082483 0
vt -1.5555017 0.245682836 0
vt -1.68517017 0.514751971 0
vt -1.58887279 0.61546278 0
vt -1.29631543 0.501128078 0
vt -1.28170383 0.451792181 0
vt -3.03373575 0.225392416 0
vt -2.95807147 0.260699004 0
vt -3.25166392 0.49867183 0
vt -3.26523256 0.452856481 0
vt -2.86655807 0.513881087 0
vt -2.95589304 0.610584259 0
vt -3.2032609 0.576133728 0
vt -2.95807123 0.260699153 0
vt -2.85664797 0.32691288 0
vt -2.83170795 0.41426903 0
vt -2.95680308 0.611136913 0
vt -3.00600958 0.651092529 0
vt -3.13957906 0.632301033 0
vt -3.07031369 0.658623636 0
vt -4.81520939 2.61756134 0
vt -4.59764862 2.63898969 0
vt -4.57972336 2.64075518 0
vt -4.59764862 2.63898945 0
vt -4.64869547 2.63396192 0
vt -4.72509241 2.62643743 0
vt -4.72509289 2.62643743 0
vt -2.88184929 0.332746953 0
vt -2.96278262 0.270946026 0
vt -3.21435356 0.575175166 0
vt -3.18563175 0.600507736 0
vt -3.05240393 0.654268146 0
vt -2.99475312 0.63198626 0
vt -3.11943173 0.643214464 0
vt -2.87604189 0.474787652 0
vt -1.58917964 0.257219166 0
vt -1.65082669 0.290597081 0
vt -1.70650542 0.363982141 0
vt -1.34427583 0.575570285 0
vt -1.40795767 0.631738007 0
vt -1.5880506 0.612752497 0
vt -1.56873035 0.628440142 0
vt -1.51252425 0.653925776 0
vt -1.34471846 0.578589857 0
vt -1.54196966 0.653548956 0
vt -1.58887291 0.615463257 0
vt -1.47766542 0.661079407 0
vt -1.40840006 0.63475734 0
vt -1.695081 0.32789889 0
vt -1.65857852 0.299976617 0
vt -1.70088863 0.469875485 0
vt 0.191611305 2.62537003 0
vt 0.0921906531 2.63516188 0
vt 0.0560823753 2.63871813 0
vt 0.0641672164 2.63792181 0
vt 0.157153949 2.62876368 0
vt 0.115213946 2.63289428 0
vt 0.241082773 2.62049747 0

# 200 vertex normals
vn 1.34700793e-08 1 -4.10320204e-08
vn 1.34700775e-08 0.99999994 -4.10320169e-08
vn 1.26885364e-08 1 -3.8455628e-08
vn 1.26885356e-08 0.99999994 -3.84556245e-08
vn 1.26885373e-08 1 -3.84556245e-08
vn 9.71136771e-09 1 -3.39999886e-08
vn 9.71136771e-09 0.99999994 -3.39999886e-08
vn 9.7113686e-09 1 -3.39999886e-08
vn 1.2297442e-14 0.99999994 -3.33766863e-08
vn 1.22974429e-14 1 -3.33766899e-08
vn 1.14193837e-08 1 -3.60812038e-08
vn 1.14193845e-08 1 -3.60812038e-08
vn 7.63018448e-09 1 -3.22920037e-08
vn 7.63018448e-09 1 -3.22920002e-08
vn -7.63019514e-09 1 -3.22920073e-08
vn -9.71141301e-09 1 -3.40000206e-08
vn -9.71141301e-09 0.99999994 -3.4000017e-08
vn -9.7114139e-09 1 -3.40000206e-08
vn -1.14193934e-08 1 -3.60812002e-08
vn -1.14193943e-08 1 -3.60812002e-08
vn -1.26885595e-08 1 -3.84556529e-08
vn -1.3470089e-08 1 -4.10320204e-08
vn -1.34700899e-08 1 -4.10320204e-08
vn -1.3470089e-08 0.99999994 -4.10320169e-08
vn 1.34700793e-08 1 -4.63907561e-08
vn 1.34700775e-08 0.99999994 -4.63907526e-08
vn 1.26885364e-08 1 -4.89671486e-08
vn 1.26885373e-08 1 -4.89671521e-08
vn 1.26885356e-08 0.99999994 -4.8967145e-08
vn 9.71136771e-09 1 -5.3422788e-08
vn 9.7113686e-09 1 -5.3422788e-08
vn 9.71136771e-09 0.99999994 -5.34227809e-08
vn 1.2297442e-14 0.99999994 -5.40460832e-08
vn 1.22974429e-14 1 -5.40460867e-08
vn 1.14193837e-08 1 -5.13415728e-08
vn 1.14193845e-08 1 -5.13415728e-08
vn 7.63018448e-09 1 -5.51307728e-08
vn 7.63018448e-09 1 -5.51307764e-08
vn -7.63019514e-09 1 -5.51307693e-08
vn -9.71141301e-09 1 -5.3422756e-08
vn -9.7114139e-09 1 -5.3422756e-08
vn -9.71141301e-09 0.99999994 -5.34227524e-08
vn -1.14193934e-08 1 -5.13415763e-08
vn -1.14193943e-08 1 -5.13415763e-08
vn -1.26885595e-08 1 -4.89671237e-08
vn -1.3470089e-08 1 -4.63907561e-08
vn -1.3470089e-08 0.99999994 -4.63907526e-08
vn -1.34700899e-08 1 -4.63907561e-08
vn 1.37339695e-08 1 -4.37113883e-08
vn 1.37339704e-08 1 -4.37113883e-08
vn 5.2179181e-09 0.99999994 -5.64201414e-08
vn 5.21791854e-09 1 -5.64201414e-08
vn 5.21791854e-09 1 -5.6420145e-08
vn 1.89576591e-10 1 -3.69931286e-08
vn 1.89576604e-10 1 -3.69931286e-08
vn 1.89576591e-10 0.99999994 -3.69931286e-08
vn 1.89576618e-10 1 -3.69931286e-08
vn 2.24456276e-08 1 -5.2717251e-08
vn 2.24456294e-08 1 -5.2717251e-08
vn -5.21794163e-09 1 -5.64201343e-08
vn -5.21794163e-09 1 -5.64201379e-08
vn -1.54431257e-09 1 -3.79345337e-08
vn -1.54431246e-09 1 -3.79345337e-08
vn -2.74112928e-08 1 -5.1788799e-08
vn -2.74112946e-08 1 -5.1788799e-08
vn -1.37339873e-08 1 -4.37113883e-08
vn -1.37339882e-08 1 -4.37113883e-08
vn -1.67327696e-09 1 -4.94079728e-08
vn -1.67327685e-09 1 -4.94079728e-08
vn -1.67327707e-09 1 -4.94079728e-08
vn -2.7411307e-08 1 -3.56339918e-08
vn -5.21794741e-09 1 -3.10026209e-08
vn -5.21794741e-09 0.99999994 -3.10026209e-08
vn 1.28160993e-09 0.99999994 -4.96786221e-08
vn 1.28160993e-09 1 -4.96786257e-08
vn 1.28160982e-09 1 -4.96786257e-08
vn 5.21791854e-09 1 -3.1002628e-08
vn 5.2179181e-09 0.99999994 -3.1002628e-08
vn 2.74112644e-08 1 -3.56339527e-08
vn 5.21792254e-09 1 -3.10026138e-08
vn 5.21792298e-09 1 -3.10026138e-08
vn 2.74112679e-08 1 -3.56339562e-08
vn 2.74112661e-08 1 -3.56339562e-08
vn 2.74112644e-08 0.99999994 -3.56339527e-08
vn 2.741141e-08 1 -3.56339669e-08
vn 2.74114083e-08 1 -3.56339669e-08
vn 2.74112626e-08 1 -3.56339562e-08
vn 2.74112608e-08 1 -3.56339562e-08
vn 5.36963674e-09 1 -3.10400168e-08
vn 5.36963674e-09 1 -3.10400203e-08
vn 5.36963718e-09 1 -3.10400168e-08
vn 5.21792209e-09 1 -3.10026316e-08
vn 5.21792254e-09 1 -3.10026316e-08
vn 5.21792076e-09 1 -3.10026209e-08
vn 5.21792121e-09 1 -3.10026209e-08
vn 5.21787813e-09 1 -3.10026209e-08
vn 5.21787857e-09 1 -3.10026209e-08
vn 5.2179332e-09 1 -3.10026245e-08
vn 2.74112502e-08 1 -3.56339598e-08
vn 2.74112519e-08 1 -3.56339598e-08
vn 1.37339713e-08 1 -4.37113883e-08
vn 1.37339722e-08 1 -4.37113883e-08
vn 1.37339757e-08 1 -4.37113421e-08
vn 1.37339766e-08 0.99999994 -4.37113385e-08
vn 1.37339748e-08 1 -4.37114203e-08
vn 1.37339748e-08 0.99999994 -4.37114167e-08
vn 1.37339731e-08 1 -4.37113883e-08
vn 1.3733974e-08 1 -4.37113883e-08
vn 1.37339624e-08 1 -4.37114487e-08
vn 1.37339633e-08 1 -4.37114487e-08
vn 1.37339615e-08 1 -4.37114487e-08
vn 1.37339766e-08 1 -4.37114593e-08
vn 1.37339757e-08 1 -4.37114593e-08
vn 1.37339686e-08 1 -4.37113279e-08
vn 1.37339677e-08 1 -4.37113279e-08
vn 1.37339775e-08 1 -4.37113137e-08
vn 1.37339757e-08 1 -4.37113137e-08
vn 1.37339766e-08 1 -4.37113137e-08
vn 1.37339748e-08 1 -4.37113883e-08
vn 1.37339731e-08 0.99999994 -4.37113847e-08
vn 1.37339882e-08 0.99999994 -4.37111005e-08
vn 1.37339899e-08 1 -4.37111041e-08
vn 2.74112555e-08 1 -5.17888203e-08
vn 2.7411259e-08 1 -5.17888203e-08
vn 5.21792121e-09 1 -5.64201521e-08
vn 5.21792076e-09 1 -5.64201521e-08
vn 5.21792076e-09 1 -5.64201557e-08
vn 5.21792032e-09 1 -5.64201557e-08
vn 5.21792254e-09 1 -5.64201557e-08
vn 5.21792209e-09 1 -5.64201557e-08
vn 5.2179181e-09 1 -5.64201557e-08
vn 5.21791765e-09 1 -5.64201557e-08
vn 5.2179292e-09 1 -5.64201521e-08
vn 2.74112502e-08 1 -5.17888168e-08
vn 2.74112519e-08 1 -5.17888168e-08
vn 2.74112537e-08 0.99999994 -5.17888168e-08
vn 2.74112573e-08 1 -5.17888203e-08
vn 2.74112555e-08 1 -5.17888168e-08
vn 2.74112537e-08 1 -5.17888168e-08
vn -2.74113052e-08 1 -5.17887813e-08
vn -2.74113034e-08 1 -5.17887813e-08
vn -2.74113159e-08 1 -5.17887848e-08
vn -2.74113141e-08 1 -5.17887848e-08
vn -2.74113123e-08 0.99999994 -5.17887813e-08
vn -2.74113123e-08 1 -5.17887848e-08
vn -2.74113017e-08 1 -5.17887919e-08
vn -2.74113052e-08 1 -5.17887919e-08
vn -2.74113034e-08 1 -5.17887919e-08
vn -5.21794519e-09 0.99999994 -5.64201486e-08
vn -5.21794563e-09 1 -5.64201521e-08
vn -5.21794519e-09 1 -5.64201557e-08
vn -5.21794608e-09 1 -5.64201557e-08
vn -5.21794563e-09 1 -5.64201557e-08
vn -5.21794608e-09 1 -5.64201486e-08
vn -5.21794608e-09 0.99999994 -5.6420145e-08
vn -6.54687371e-09 1 -5.60953239e-08
vn -6.54687415e-09 1 -5.60953239e-08
vn -5.21793897e-09 1 -5.64201521e-08
vn -5.21790833e-09 1 -5.64201557e-08
vn -5.2179443e-09 1 -3.10026351e-08
vn -5.21794474e-09 1 -3.10026351e-08
vn -5.21794519e-09 1 -3.10026351e-08
vn -6.38000941e-09 0.99999994 -3.12870583e-08
vn -6.3800103e-09 1 -3.12870618e-08
vn -6.38000985e-09 1 -3.12870618e-08
vn -5.21794608e-09 1 -3.1002628e-08
vn -5.21794608e-09 0.99999994 -3.1002628e-08
vn -5.21794652e-09 1 -3.10026316e-08
vn -5.21794519e-09 1 -3.10026174e-08
vn -5.21794474e-09 1 -3.10026174e-08
vn -5.21794519e-09 0.99999994 -3.1002628e-08
vn -5.21794608e-09 1 -3.10026316e-08
vn -5.21794563e-09 1 -3.10026316e-08
vn -5.21794075e-09 1 -3.1002628e-08
vn -5.2179403e-09 1 -3.1002628e-08
vn -2.74113159e-08 1 -3.56339882e-08
vn -2.74113017e-08 1 -3.56339953e-08
vn -2.74113141e-08 0.99999994 -3.56339882e-08
vn -2.74113141e-08 1 -3.56339953e-08
vn -2.74113159e-08 1 -3.56339953e-08
vn -2.74113052e-08 1 -3.56339953e-08
vn -2.74113034e-08 1 -3.56339953e-08
vn -1.37339864e-08 1 -4.37113883e-08
vn -1.3733974e-08 1 -4.37113705e-08
vn -1.37339722e-08 1 -4.37113705e-08
vn -1.37339731e-08 1 -4.37113705e-08
vn -1.37339802e-08 1 -4.37113883e-08
vn -1.37339793e-08 1 -4.37113883e-08
vn -1.37339775e-08 0.99999994 -4.37113847e-08
vn -1.37339784e-08 1 -4.37113883e-08
vn -1.37339775e-08 1 -4.37113883e-08
vn -1.37339713e-08 1 -4.37114487e-08
vn -1.37339731e-08 1 -4.37114487e-08
vn -1.37339722e-08 1 -4.37114487e-08
vn -1.37339793e-08 0.99999994 -4.37113812e-08
vn -1.37339802e-08 1 -4.37113847e-08
vn -1.37340033e-08 1 -4.37111076e-08
vn -1.37340042e-08 1 -4.37111076e-08
vn -1.3733958e-08 1 -4.37113883e-08
vn -1.37339589e-08 1 -4.37113883e-08

# Mesh 'navmesh_arena' with 98 faces
g navmesh_arena
usemtl 15 - Default
f  1/1/1 2/2/2 3/3/1
f  1/1/3 4/4/4 2/2/5
f  1/1/6 5/5/7 6/6/8
f  1/1/9 7/7/10 8/8/10
f  1/1/11 6/6/11 4/4/12
f  1/1/13 9/9/14 5/5/13
f  1/1/15 10/10/15 11/11/15
f  1/1/16 12/12/17 10/10/18
f  1/1/19 13/13/20 12/12/20
f  1/1/21 14/14/21 13/13/21
f  1/1/22 15/15/23 14/14/24
f  1/1/25 16/3/25 17/2/26
f  1/1/27 17/2/28 18/4/29
f  1/1/30 19/6/31 20/5/32
f  1/1/33 21/8/34 22/7/34
f  1/1/35 18/4/36 19/6/35
f  1/1/37 20/5/37 23/9/38
f  1/1/39 24/11/39 25/10/39
f  1/1/40 25/10/41 26/12/42
f  1/1/43 26/12/44 27/13/44
f  1/1/45 27/13/45 28/14/45
f  1/1/46 28/14/47 29/15/48
f  16/3/49 30/16/50 31/17/50
f  32/18/51 23/9/52 33/19/53
f  34/20/54 35/21/55 36/22/56 21/8/57
f  37/23/58 1/1/59 38/24/59
f  24/11/60 39/25/60 40/26/61
f  41/27/62 42/28/62 43/29/63 22/7/62
f  1/1/64 44/30/65 45/31/64
f  15/15/66 46/32/67 47/33/66
f  48/34/68 49/35/69 50/27/70 7/7/68
f  51/36/71 1/1/71 52/37/71
f  53/38/72 11/11/72 54/39/73
f  55/22/74 56/40/75 57/41/76 8/8/75
f  9/9/77 58/42/77 59/43/78
f  1/1/79 60/44/79 61/45/79
f  9/9/80 62/46/81 58/42/81
f  8/8/82 57/47/83 63/48/84
f  1/1/85 64/49/86 60/44/85
f  8/8/87 63/48/87 64/49/88
f  1/1/89 61/50/90 65/51/91
f  9/9/92 66/52/92 62/46/93
f  9/9/94 1/1/94 66/52/95
f  1/1/96 65/51/97 67/53/96
f  1/1/98 67/53/98 66/52/98
f  1/1/99 8/8/99 64/49/100
f  3/3/101 68/3/101 69/54/102
f  16/3/103 1/1/104 30/16/103
f  1/1/105 70/55/105 71/56/106
f  1/1/102 71/56/107 72/57/107
f  1/1/108 73/58/108 70/55/108
f  1/1/109 74/58/110 75/59/111
f  1/1/112 3/3/113 76/60/112
f  1/1/114 76/60/114 73/58/115
f  1/1/116 72/57/117 74/58/118
f  3/3/119 69/54/107 76/60/120
f  1/1/121 75/59/122 30/16/122
f  77/61/123 34/62/123 21/8/124
f  32/18/125 78/63/126 23/9/126
f  78/63/125 79/64/125 23/9/125
f  79/64/127 1/1/127 23/9/128
f  80/65/129 38/66/130 1/1/130
f  81/67/131 80/65/131 1/1/132
f  79/64/133 81/67/133 1/1/133
f  37/23/134 82/68/135 1/1/135
f  82/68/136 77/61/137 21/8/123
f  82/68/138 21/8/138 1/1/139
f  22/7/140 43/69/141 83/70/141
f  22/7/142 83/70/143 84/71/144
f  1/1/143 22/7/145 84/71/143
f  1/1/146 84/71/147 44/30/148
f  24/11/149 85/72/150 39/25/149
f  24/11/151 86/73/152 85/72/153
f  24/11/154 1/1/155 86/73/154
f  1/1/156 45/74/157 87/75/156
f  1/1/158 87/75/158 88/76/158
f  1/1/159 88/76/159 86/73/159
f  53/38/160 89/77/161 11/11/162
f  90/78/163 52/79/164 1/1/165
f  91/80/166 90/78/167 1/1/168
f  89/77/169 92/81/170 11/11/169
f  92/81/171 1/1/172 11/11/173
f  92/81/174 91/80/174 1/1/175
f  93/82/176 48/83/176 7/7/176
f  94/84/177 93/82/177 7/7/177
f  51/36/178 94/84/179 1/1/180
f  94/84/181 7/7/181 1/1/182
f  29/15/183 95/15/66 96/32/183
f  15/15/184 97/85/185 46/32/186
f  1/1/187 98/86/187 99/87/188
f  1/1/188 99/87/188 100/88/187
f  1/1/189 101/89/188 98/86/190
f  1/1/188 100/88/189 102/90/190
f  1/1/191 102/90/191 97/85/191
f  1/1/192 103/91/193 101/89/194
f  15/15/195 1/1/196 97/85/196
f  1/1/197 96/32/198 103/91/197
f  1/1/199 29/15/199 96/32/200

