# File produced by Open Asset Import Library (http://www.assimp.sf.net)
# (assimp v5.0.3443702165)

mtllib result.mtl

# 141 vertex positions
v  -660.836975 836.999023 1236.34253
v  -406.940613 836.999023 1341.50964
v  -406.940674 486.998901 1341.50964
v  -660.837036 486.998962 1236.34253
v  -406.940857 118.416473 1341.50964
v  -660.837158 118.416504 1236.34253
v  -745.784058 525.999329 1198.94946
v  -736.837891 525.999329 1185.56067
v  -745.784058 486.999023 1198.94946
v  -736.837891 486.999023 1185.56067
v  -745.784119 381.999023 1198.94946
v  -736.837891 381.999023 1185.56067
v  -813.337891 525.99939 1134.44495
v  -822.283936 525.99939 1147.83398
v  -813.337891 486.999054 1134.44495
v  -822.283936 486.999054 1147.83398
v  -813.337891 381.999023 1134.44495
v  -822.283936 381.999023 1147.83398
v  -737.874634 538.903198 1184.86792
v  -746.820801 538.903198 1198.25671
v  -740.945068 550.796814 1182.81616
v  -749.891296 550.796814 1196.20508
v  -745.931091 561.758057 1179.48462
v  -754.877319 561.758057 1192.87341
v  -752.641357 571.365601 1175.00098
v  -761.587524 571.365601 1188.38989
v  -760.817627 579.250305 1169.53772
v  -769.763855 579.250305 1182.92676
v  -770.146118 585.109253 1163.30469
v  -784.034058 585.80188 1173.39185
v  -775.087891 587.187012 1160.00269
v  -780.029663 585.109253 1156.70068
v  -789.357971 579.250305 1150.46765
v  -798.304138 579.250305 1163.85669
v  -797.534241 571.365601 1145.00439
v  -806.48053 571.365601 1158.39343
v  -804.244507 561.758057 1140.52087
v  -813.190735 561.758118 1153.90979
v  -809.23053 550.796814 1137.18933
v  -818.176758 550.796814 1150.57825
v  -812.301025 538.903259 1135.1377
v  -821.247253 538.903259 1148.52661
v  -889.337769 836.999023 1083.66345
v  -775.087891 836.999023 1160.00269
v  -889.33783 486.998993 1083.66345
v  -889.337891 118.416565 1083.66345
v  -775.088013 118.416626 1160.00269
v  -775.087891 381.999023 1160.00269
v  -1083.66174 836.999084 889.339966
v  -1083.66187 486.998993 889.339966
v  -1083.66187 118.416534 889.339966
v  -1147.83276 525.999451 822.285522
v  -1134.44385 525.999451 813.339355
v  -1147.83276 486.999084 822.285522
v  -1134.44385 486.999084 813.339355
v  -1147.83276 381.999054 822.285522
v  -1134.44385 381.999084 813.339355
v  -1185.55957 525.99939 736.839355
v  -1198.94836 525.999451 745.785645
v  -1185.55957 486.999084 736.839355
v  -1198.94836 486.999084 745.785645
v  -1185.55957 381.999084 736.839355
v  -1198.94836 381.999054 745.785645
v  -1135.13647 538.90332 812.30249
v  -1148.52551 538.90332 821.248779
v  -1137.18823 550.796875 809.232056
v  -1150.57715 550.796875 818.178223
v  -1140.51978 561.758179 804.245972
v  -1153.90869 561.758179 813.192261
v  -1145.00342 571.365723 797.535767
v  -1158.39233 571.365723 806.481934
v  -1150.46655 579.250427 789.359497
v  -1163.85559 579.250427 798.305664
v  -1156.69971 585.109375 780.031006
v  -1173.39062 585.801941 784.035522
v  -1160.00171 587.187073 775.089233
v  -1163.30371 585.109375 770.147461
v  -1169.53662 579.250366 760.819214
v  -1182.92554 579.250366 769.765381
v  -1174.99988 571.365723 752.642822
v  -1188.38892 571.365723 761.588989
v  -1179.48352 561.758179 745.932617
v  -1192.87244 561.758179 754.878784
v  -1182.81506 550.796875 740.946533
v  -1196.2041 550.796875 749.892822
v  -1184.8667 538.90332 737.876099
v  -1198.25574 538.90332 746.822266
v  -1236.34119 836.999084 660.839478
v  -1160.00159 836.999023 775.089233
v  -1236.34119 486.999023 660.839478
v  -1236.34131 118.416595 660.839478
v  -1160.00183 118.416656 775.089111
v  -1160.00171 381.999084 775.089233
v  -1341.50867 836.999146 406.943329
v  -1341.50879 486.999054 406.943298
v  -1341.50879 118.416595 406.943329
v  -1375.1344 525.99939 320.436066
v  -1359.34106 525.99939 317.294586
v  -1375.1344 486.999084 320.436066
v  -1359.34106 486.999084 317.294586
v  -1375.1344 381.999084 320.436066
v  -1359.34106 381.999084 317.294586
v  -1377.29053 525.99939 227.056656
v  -1393.08386 525.999451 230.198318
v  -1377.29053 486.999084 227.056656
v  -1393.08386 486.999115 230.198318
v  -1377.29053 381.999084 227.056656
v  -1393.08386 381.999084 230.198318
v  -1359.58423 538.90332 316.071625
v  -1375.37769 538.90332 319.213135
v  -1360.30469 550.796875 312.449707
v  -1376.09814 550.796875 315.591217
v  -1361.47461 561.758179 306.568268
v  -1377.26794 561.758179 309.709778
v  -1363.04907 571.365723 298.653046
v  -1378.84241 571.365723 301.794525
v  -1364.96753 579.250427 289.008392
v  -1380.76086 579.250427 292.149902
v  -1367.15625 585.109375 278.004761
v  -1384.10913 585.80188 275.317017
v  -1368.3158 587.187012 272.175537
v  -1369.47522 585.109375 266.346344
v  -1371.66394 579.250427 255.34285
v  -1387.4574 579.250427 258.484344
v  -1373.5824 571.365723 245.698196
v  -1389.37585 571.365723 248.839676
v  -1375.15686 561.758179 237.782974
v  -1390.9502 561.758179 240.924484
v  -1376.32678 550.796875 231.901535
v  -1392.12012 550.796936 235.043015
v  -1377.04724 538.90332 228.279648
v  -1392.84058 538.90332 231.421097
v  -1395.12256 836.999146 137.408539
v  -1368.31567 836.999023 272.175537
v  -1395.12268 486.999054 137.408524
v  -1395.12268 118.416565 137.408508
v  -1368.31592 118.416656 272.175537
v  -1368.3158 381.999084 272.175629
v  -1395.1228 118.416565 -5.17615263e-06
v  -1395.1228 486.999054 -2.12874038e-05
v  -1395.12268 836.999146 -3.65863925e-05

# 59 UV coordinates
vt 1 2.56445312 0
vt 0 2.56445312 0
vt 0 1.25 0
vt 1 1.25 0
vt -7.5088149e-09 -0.0658517182 0
vt 1 -0.0658517182 0
vt 0.391601562 1.40039062 0
vt 0.333251953 1.40039062 0
vt 0.391113281 1.25 0
vt 0.333251953 1.25 0
vt 0.391113281 0.874389648 0
vt 0.333740234 0.874389648 0
vt 0.666503906 1.40039062 0
vt 0.607910156 1.40039062 0
vt 0.666503906 1.25 0
vt 0.608398438 1.25 0
vt 0.666503906 0.874389648 0
vt 0.608398438 0.874389648 0
vt 0.338134766 1.45117188 0
vt 0.394775391 1.44995117 0
vt 0.351806641 1.49560547 0
vt 0.405029297 1.49267578 0
vt 0.374267578 1.53564453 0
vt 0.422607422 1.53125 0
vt 0.401611328 1.56787109 0
vt 0.441894531 1.55957031 0
vt 0.437011719 1.59667969 0
vt 0.468261719 1.58056641 0
vt 0.477539062 1.61816406 0
vt 0.497558594 1.59204102 0
vt 0.5 1.62597656 0
vt 0.502197266 1.59204102 0
vt 0.521972656 1.61816406 0
vt 0.563476562 1.59619141 0
vt 0.532714844 1.57910156 0
vt 0.596191406 1.56933594 0
vt 0.555664062 1.56201172 0
vt 0.625976562 1.53515625 0
vt 0.577636719 1.52978516 0
vt 0.647949219 1.49560547 0
vt 0.594726562 1.49267578 0
vt 0.661621094 1.45141602 0
vt 0.604980469 1.45019531 0
vt 0.5 2.56445312 0
vt 1.00009191 -0.0659753904 0
vt -5.49966935e-05 -0.0659669191 0
vt 0.499995381 -0.0657943264 0
vt 0.50012207 0.874389648 0
vt -2.28709404e-16 -0.0658517182 0
vt 1.00009191 -0.0659753829 0
vt -5.49883116e-05 -0.0659669265 0
vt -2.13461959e-15 -0.0658517182 0
vt 1.00009203 -0.065975368 0
vt -5.49845281e-05 -0.065966934 0
vt 0.499995381 -0.0657943189 0
vt 1.11047605e-07 -0.0658517107 0
vt 0.500003278 -0.0658517107 0
vt 0.500003338 1.25 0
vt 0.500003397 2.56445312 0

# 192 vertex normals
vn 0.471395999 -1.4259885e-07 -0.881921649
vn 0.3826828 -1.06378039e-07 -0.923879802
vn 0.38268286 -1.52919725e-07 -0.923879802
vn 0.471395284 -1.34257022e-07 -0.881922066
vn 0.38268286 -1.99461425e-07 -0.923879862
vn 0.471396178 -5.6853164e-08 -0.88192147
vn -0.830503583 -0.0481464714 -0.554928482
vn -0.830503643 -0.0481465012 -0.554928541
vn -0.831467867 2.17375984e-07 -0.555572867
vn -0.831467748 1.93964738e-07 -0.555572927
vn -0.831466317 2.25373231e-08 -0.555575192
vn -0.831466079 -2.4284974e-08 -0.55557543
vn 0.830509603 -0.0481467359 0.554919541
vn 0.830511987 -0.0481418446 0.554916441
vn 0.831475973 2.42843221e-08 0.555560529
vn 0.831476092 2.42843221e-08 0.555560529
vn 0.831476092 2.42843239e-08 0.555560589
vn -0.815109134 -0.197388113 -0.54464215
vn -0.815109432 -0.197387427 -0.544642031
vn -0.765565753 -0.390177757 -0.511537313
vn -0.765565097 -0.390178233 -0.51153785
vn -0.686413586 -0.564335883 -0.458651811
vn -0.686413944 -0.564335644 -0.458651394
vn -0.581193686 -0.715125322 -0.388342261
vn -0.581195951 -0.715123832 -0.388341546
vn -0.454662353 -0.837252021 -0.303794473
vn -0.416113257 -0.854826748 -0.310033768
vn -0.279584885 -0.924204707 -0.260149956
vn 0.0603522286 -0.996578932 -0.0564632714
vn 0.0476150811 -0.996320844 -0.0712563694
vn 0.402443886 -0.905565441 0.134127051
vn 0.449367821 -0.853660882 0.26330936
vn 0.4133237 -0.867693722 0.27617237
vn 0.581194043 -0.71512574 0.38834098
vn 0.581191957 -0.71512717 0.388341635
vn 0.686415255 -0.56433475 0.458650738
vn 0.686414957 -0.564334869 0.458650917
vn 0.765565872 -0.390177488 0.511537373
vn 0.76556617 -0.390176982 0.511537254
vn 0.815109134 -0.197391048 0.544640958
vn 0.815112114 -0.197385982 0.544638336
vn 0.634392619 -1.31694151e-07 -0.773011029
vn 0.555569649 -7.98510484e-08 -0.831469953
vn 0.55556345 -2.59096714e-06 -0.831474125
vn 0.555567026 -1.26357236e-06 -0.831471801
vn 0.555566251 -1.48389449e-06 -0.831472337
vn 0.555572569 1.88418574e-06 -0.831468046
vn 0.555572152 1.58511193e-06 -0.831468344
vn 0.555568993 -4.54596943e-07 -0.83147043
vn 0.55557102 -1.1885048e-07 -0.831468999
vn 0.55556953 -3.63447121e-08 -0.831470072
vn 0.55556941 -8.72884982e-08 -0.831470191
vn 0.634392619 -1.22858296e-07 -0.773011029
vn 0.555569887 -3.63446979e-08 -0.831469774
vn 0.555569649 -1.2195332e-07 -0.831470013
vn 0.634392381 -1.16508019e-07 -0.773011088
vn 0.555570006 -2.66025921e-07 -0.831469774
vn 0.555568993 -3.49938283e-08 -0.83147043
vn 0.555569887 1.09598766e-08 -0.831469834
vn 0.555569887 1.09599121e-08 -0.831469834
vn 0.555570424 -6.85993143e-07 -0.831469476
vn 0.555568039 -3.63447548e-08 -0.831471086
vn 0.555568457 -2.15567411e-07 -0.831470907
vn 0.555569053 -3.63447263e-08 -0.83147043
vn 0.555573404 -2.00787713e-06 -0.83146739
vn 0.555580318 -4.54290921e-06 -0.83146286
vn 0.773009896 -3.05575185e-07 -0.63439399
vn 0.773009956 -1.42316708e-07 -0.634393752
vn 0.773010075 -6.26334185e-08 -0.634393752
vn -0.554925501 -0.0481470712 -0.83050561
vn -0.554924965 -0.0481479652 -0.830505908
vn -0.555569351 -3.63447192e-08 -0.831470251
vn -0.555569291 -3.63447121e-08 -0.831470132
vn -0.555569351 -3.63447157e-08 -0.831470191
vn 0.554930329 -0.0481452346 0.83050245
vn 0.554933906 -0.0481399819 0.830500364
vn 0.555578113 3.63444634e-08 0.83146441
vn 0.555578053 3.63444599e-08 0.83146435
vn -0.544639885 -0.19738856 -0.815110445
vn -0.544639885 -0.19738844 -0.815110505
vn -0.511534691 -0.390179664 -0.765566468
vn -0.511535704 -0.390178621 -0.765566289
vn -0.458651215 -0.564334512 -0.686415076
vn -0.458651602 -0.564333856 -0.686415374
vn -0.388342261 -0.715124965 -0.581193984
vn -0.38833937 -0.715126991 -0.581193566
vn -0.30379349 -0.83725208 -0.454662859
vn -0.265790254 -0.854827225 -0.445674598
vn -0.158745304 -0.924204767 -0.347340375
vn 0.0773673952 -0.996578813 -0.029067887
vn 0.0712586492 -0.996320784 -0.0476129316
vn 0.320482731 -0.905564606 0.277927399
vn 0.314394683 -0.853661835 0.415231764
vn 0.27617234 -0.867693782 0.413323462
vn 0.388337731 -0.715127587 0.581193864
vn 0.388338208 -0.71512717 0.581194222
vn 0.458647311 -0.564334691 0.68641746
vn 0.458649158 -0.564333022 0.686417639
vn 0.511536062 -0.390176475 0.765567183
vn 0.51153481 -0.390177727 0.765567422
vn 0.544636548 -0.197389737 0.815112293
vn 0.544638932 -0.197386548 0.815111578
vn 0.881920338 -2.04301273e-07 -0.471398294
vn 0.831467927 -1.69860542e-07 -0.555572808
vn 0.831458151 -5.67637835e-06 -0.555587411
vn 0.83147049 1.37368784e-06 -0.555569053
vn 0.831469119 4.77686285e-07 -0.5555709
vn 0.83147043 1.43356647e-06 -0.555568993
vn 0.831469357 4.44792164e-07 -0.555570602
vn 0.83146745 -8.14921975e-07 -0.555573404
vn 0.831468761 2.56075037e-08 -0.555571616
vn 0.831469178 -4.36803674e-07 -0.55557102
vn 0.831468105 1.09458017e-06 -0.55557251
vn 0.881920755 -1.23419824e-07 -0.471397728
vn 0.831468999 -2.42847875e-08 -0.555571198
vn 0.831468701 -1.93363434e-07 -0.555571496
vn 0.881920636 -1.73379831e-07 -0.471397996
vn 0.831470013 -4.82188682e-07 -0.555569589
vn 0.831469715 -3.0250515e-08 -0.555570126
vn 0.831469178 -8.96353285e-08 -0.555570841
vn 0.831469178 -8.96353001e-08 -0.555570841
vn 0.831469774 -4.62204298e-07 -0.555569947
vn 0.831469655 -2.42847467e-08 -0.555570245
vn 0.831471503 -1.24192593e-06 -0.555567443
vn 0.831470728 -9.1637412e-07 -0.555568457
vn 0.831481278 -6.43512385e-06 -0.55555284
vn 0.831462979 3.7568991e-06 -0.555580258
vn 0.956940114 -2.72185133e-07 -0.290285558
vn 0.956940114 -1.41475638e-07 -0.290285408
vn 0.956939995 -1.9327473e-07 -0.290285558
vn -0.194863588 -0.0481466949 -0.979647994
vn -0.194863454 -0.0481468961 -0.979647934
vn -0.195089698 -4.28714912e-08 -0.98078537
vn -0.195089743 -4.28714912e-08 -0.980785429
vn 0.194870725 -0.0481452458 0.979646683
vn 0.194874361 -0.0481407344 0.979646146
vn 0.19510068 4.28713989e-08 0.980783284
vn 0.195100665 4.28713989e-08 0.980783284
vn 0.19510065 4.28713953e-08 0.980783165
vn 0.195100665 4.28713953e-08 0.980783224
vn -0.191251636 -0.19738853 -0.961488664
vn -0.191251755 -0.197388306 -0.961488724
vn -0.179627031 -0.390179187 -0.903047264
vn -0.179627448 -0.39017868 -0.903047383
vn -0.161056742 -0.564334393 -0.809683561
vn -0.161056712 -0.564334333 -0.809683621
vn -0.136367232 -0.715126216 -0.685564339
vn -0.136367097 -0.715126514 -0.685564101
vn -0.106678955 -0.837252378 -0.53630954
vn -0.0750072449 -0.854827821 -0.513462007
vn -0.0137380389 -0.924206257 -0.381646544
vn 0.0826036409 -0.996578753 0.0027550857
vn 0.0840555653 -0.996320844 -0.0167175494
vn 0.189726278 -0.905566633 0.37941131
vn 0.131560385 -0.853662074 0.503937483
vn 0.0969788432 -0.867693663 0.487547874
vn 0.136366084 -0.715126276 0.685564399
vn 0.136366576 -0.715125918 0.685564816
vn 0.161056399 -0.564334154 0.809683681
vn 0.161056399 -0.564334214 0.809683621
vn 0.179626718 -0.390178829 0.903047442
vn 0.179625362 -0.39018029 0.903047144
vn 0.191249669 -0.197389722 0.961488843
vn 0.191252947 -0.197385788 0.961488962
vn 0.99518466 -3.61604322e-07 -0.0980175883
vn 0.980784774 -1.04241769e-06 -0.195092753
vn 0.980784714 -1.08221741e-06 -0.195092976
vn 0.980784774 -1.08053712e-06 -0.195092991
vn 0.980784893 -7.59224065e-07 -0.195092186
vn 0.980785191 -5.7401234e-08 -0.195090607
vn 0.980786383 3.08920585e-06 -0.195084587
vn 0.980785131 -3.06719727e-07 -0.195090845
vn 0.980785668 2.87982994e-06 -0.195088759
vn 0.980785131 -4.63720767e-07 -0.195090607
vn 0.980784953 5.74966577e-07 -0.195092246
vn 0.99518472 -1.50742082e-07 -0.0980177224
vn 0.980785251 -8.52768434e-09 -0.195090681
vn 0.980785191 -1.16067156e-07 -0.195090383
vn 0.99518466 -1.14851773e-07 -0.0980174839
vn 0.98078537 -6.70753707e-07 -0.1950901
vn 0.980785191 -1.13830893e-07 -0.19509095
vn 0.980785191 -2.80706161e-07 -0.195090592
vn 0.980785251 -2.80706161e-07 -0.195090607
vn 0.980784833 4.46821105e-07 -0.195092455
vn 0.980785251 -8.527687e-09 -0.195090741
vn 0.980785608 -8.49457194e-07 -0.195088699
vn 0.980784774 8.16608178e-07 -0.195093289
vn 0.980788052 -4.64483583e-06 -0.195076436
vn 0.980784833 5.95426229e-07 -0.195092633
vn 1 -2.05464782e-15 -8.88375098e-07
vn 1 -1.74386159e-07 -8.88375098e-07
vn 1 -3.48772289e-07 -8.88375041e-07

# Mesh 'wall01a_arena' with 188 faces
g wall01a_arena
usemtl Material #181
f  1/1/1 2/2/2 3/3/3 4/4/4
f  3/3/3 5/5/5 6/6/6 4/4/4
f  7/7/7 8/8/8 9/9/9
f  9/9/9 8/8/8 10/10/10
f  9/9/9 10/10/10 11/11/11
f  11/11/11 10/10/10 12/12/12
f  13/13/13 14/14/14 15/15/15
f  15/15/15 14/14/14 16/16/16
f  15/15/15 16/16/16 17/17/17
f  17/17/17 16/16/16 18/18/15
f  8/8/8 7/7/7 19/19/18
f  19/19/18 7/7/7 20/20/19
f  19/19/18 20/20/19 21/21/20
f  21/21/20 20/20/19 22/22/21
f  21/21/20 22/22/21 23/23/22
f  23/23/22 22/22/21 24/24/23
f  23/23/22 24/24/23 25/25/24
f  25/25/24 24/24/23 26/26/25
f  25/25/24 26/26/25 27/27/26
f  27/27/26 26/26/25 28/28/27
f  27/27/26 28/28/27 29/29/28
f  29/29/28 28/28/27 30/30/29
f  29/29/28 30/30/29 31/31/30
f  30/32/29 32/33/31 31/31/30
f  32/33/31 30/32/29 33/34/32
f  33/34/32 30/32/29 34/35/33
f  33/34/32 34/35/33 35/36/34
f  35/36/34 34/35/33 36/37/35
f  35/36/34 36/37/35 37/38/36
f  37/38/36 36/37/35 38/39/37
f  37/38/36 38/39/37 39/40/38
f  39/40/38 38/39/37 40/41/39
f  39/40/38 40/41/39 41/42/40
f  41/42/40 40/41/39 42/43/41
f  41/42/40 42/43/41 13/13/13
f  13/13/13 42/43/41 14/14/14
f  43/1/42 39/40/43 41/42/44
f  43/1/42 37/38/45 39/40/43
f  43/1/42 35/36/46 37/38/45
f  43/1/42 33/34/47 35/36/46
f  43/1/42 32/33/48 33/34/47
f  43/1/42 41/42/44 13/13/49
f  32/33/48 43/1/42 31/31/50
f  43/1/42 44/44/51 31/31/50
f  1/2/1 31/31/50 44/44/51
f  29/29/52 31/31/50 1/2/1
f  43/1/42 13/13/49 45/4/53
f  15/15/54 45/4/53 13/13/49
f  17/17/55 45/4/53 15/15/54
f  46/45/56 45/4/53 17/17/55
f  1/2/1 27/27/57 29/29/52
f  12/12/58 6/46/6 47/47/59 48/48/60
f  1/2/1 25/25/61 27/27/57
f  6/46/6 12/12/58 4/3/4
f  4/3/4 12/12/58 10/10/62
f  4/3/4 10/10/62 8/8/63
f  1/2/1 4/3/4 8/8/63
f  1/2/1 23/23/64 25/25/61
f  1/2/1 8/8/63 19/19/65
f  1/2/1 21/21/66 23/23/64
f  1/2/1 19/19/65 21/21/66
f  47/47/59 46/45/56 17/17/55 48/48/60
f  49/1/67 43/2/42 45/3/53 50/4/68
f  45/3/53 46/49/56 51/6/69 50/4/68
f  52/7/70 53/8/71 54/9/72
f  54/9/72 53/8/71 55/10/73
f  54/9/72 55/10/73 56/11/74
f  56/11/74 55/10/73 57/12/74
f  58/13/75 59/14/76 60/15/77
f  60/15/77 59/14/76 61/16/77
f  60/15/77 61/16/77 62/17/78
f  62/17/78 61/16/77 63/18/78
f  53/8/71 52/7/70 64/19/79
f  64/19/79 52/7/70 65/20/80
f  64/19/79 65/20/80 66/21/81
f  66/21/81 65/20/80 67/22/82
f  66/21/81 67/22/82 68/23/83
f  68/23/83 67/22/82 69/24/84
f  68/23/83 69/24/84 70/25/85
f  70/25/85 69/24/84 71/26/86
f  70/25/85 71/26/86 72/27/87
f  72/27/87 71/26/86 73/28/88
f  72/27/87 73/28/88 74/29/89
f  74/29/89 73/28/88 75/30/90
f  74/29/89 75/30/90 76/31/91
f  75/32/90 77/33/92 76/31/91
f  77/33/92 75/32/90 78/34/93
f  78/34/93 75/32/90 79/35/94
f  78/34/93 79/35/94 80/36/95
f  80/36/95 79/35/94 81/37/96
f  80/36/95 81/37/96 82/38/97
f  82/38/97 81/37/96 83/39/98
f  82/38/97 83/39/98 84/40/99
f  84/40/99 83/39/98 85/41/100
f  84/40/99 85/41/100 86/42/101
f  86/42/101 85/41/100 87/43/102
f  86/42/101 87/43/102 58/13/75
f  58/13/75 87/43/102 59/14/76
f  88/1/103 84/40/104 86/42/105
f  88/1/103 82/38/106 84/40/104
f  88/1/103 80/36/107 82/38/106
f  88/1/103 78/34/108 80/36/107
f  88/1/103 77/33/109 78/34/108
f  88/1/103 86/42/105 58/13/110
f  77/33/109 88/1/103 76/31/111
f  88/1/103 89/44/112 76/31/111
f  49/2/67 76/31/111 89/44/112
f  74/29/113 76/31/111 49/2/67
f  88/1/103 58/13/110 90/4/114
f  60/15/115 90/4/114 58/13/110
f  62/17/116 90/4/114 60/15/115
f  91/50/117 90/4/114 62/17/116
f  49/2/67 72/27/118 74/29/113
f  57/12/119 51/51/69 92/47/120 93/48/121
f  49/2/67 70/25/122 72/27/118
f  51/51/69 57/12/119 50/3/68
f  50/3/68 57/12/119 55/10/123
f  50/3/68 55/10/123 53/8/124
f  49/2/67 50/3/68 53/8/124
f  49/2/67 68/23/125 70/25/122
f  49/2/67 53/8/124 64/19/126
f  49/2/67 66/21/127 68/23/125
f  49/2/67 64/19/126 66/21/127
f  92/47/120 91/50/117 62/17/116 93/48/121
f  94/1/128 88/2/103 90/3/114 95/4/129
f  90/3/114 91/52/117 96/6/130 95/4/129
f  97/7/131 98/8/132 99/9/133
f  99/9/133 98/8/132 100/10/133
f  99/9/133 100/10/133 101/11/134
f  101/11/134 100/10/133 102/12/133
f  103/13/135 104/14/136 105/15/137
f  105/15/137 104/14/136 106/16/138
f  105/15/137 106/16/138 107/17/139
f  107/17/139 106/16/138 108/18/140
f  98/8/132 97/7/131 109/19/141
f  109/19/141 97/7/131 110/20/142
f  109/19/141 110/20/142 111/21/143
f  111/21/143 110/20/142 112/22/144
f  111/21/143 112/22/144 113/23/145
f  113/23/145 112/22/144 114/24/146
f  113/23/145 114/24/146 115/25/147
f  115/25/147 114/24/146 116/26/148
f  115/25/147 116/26/148 117/27/149
f  117/27/149 116/26/148 118/28/150
f  117/27/149 118/28/150 119/29/151
f  119/29/151 118/28/150 120/30/152
f  119/29/151 120/30/152 121/31/153
f  120/32/152 122/33/154 121/31/153
f  122/33/154 120/32/152 123/34/155
f  123/34/155 120/32/152 124/35/156
f  123/34/155 124/35/156 125/36/157
f  125/36/157 124/35/156 126/37/158
f  125/36/157 126/37/158 127/38/159
f  127/38/159 126/37/158 128/39/160
f  127/38/159 128/39/160 129/40/161
f  129/40/161 128/39/160 130/41/162
f  129/40/161 130/41/162 131/42/163
f  131/42/163 130/41/162 132/43/164
f  131/42/163 132/43/164 103/13/135
f  103/13/135 132/43/164 104/14/136
f  133/1/165 129/40/166 131/42/167
f  133/1/165 127/38/168 129/40/166
f  133/1/165 125/36/169 127/38/168
f  133/1/165 123/34/170 125/36/169
f  133/1/165 122/33/171 123/34/170
f  133/1/165 131/42/167 103/13/172
f  122/33/171 133/1/165 121/31/173
f  133/1/165 134/44/174 121/31/173
f  94/2/128 121/31/173 134/44/174
f  119/29/175 121/31/173 94/2/128
f  133/1/165 103/13/172 135/4/176
f  105/15/177 135/4/176 103/13/172
f  107/17/178 135/4/176 105/15/177
f  136/53/179 135/4/176 107/17/178
f  94/2/128 117/27/180 119/29/175
f  102/12/181 96/54/130 137/55/182 138/48/183
f  94/2/128 115/25/184 117/27/180
f  96/54/130 102/12/181 95/3/129
f  95/3/129 102/12/181 100/10/185
f  95/3/129 100/10/185 98/8/186
f  94/2/128 95/3/129 98/8/186
f  94/2/128 113/23/187 115/25/184
f  94/2/128 98/8/186 109/19/188
f  94/2/128 111/21/189 113/23/187
f  94/2/128 109/19/188 111/21/189
f  137/55/182 136/53/179 107/17/178 138/48/183
f  136/56/179 139/57/190 140/58/191 135/3/176
f  133/2/165 135/3/176 140/58/191 141/59/192

