# File produced by Open Asset Import Library (http://www.assimp.sf.net)
# (assimp v5.0.3443702165)

mtllib result.mtl

# 51 vertex positions
v  -1402.37817 570.68689 278.950653
v  -1402.00916 569.582397 280.806854
v  -1402.74744 569.582397 277.095062
v  -1400.44006 565.190979 288.695404
v  -1404.31653 565.190979 269.206268
v  -1399.09229 559.370789 295.471283
v  -1405.66455 559.370789 262.430145
v  -1397.97632 552.217651 301.080536
v  -1406.78015 552.217651 256.820892
v  -1397.1416 544.00177 305.276947
v  -1407.61487 544.001709 252.624603
v  -1396.62598 535.065552 307.86972
v  -1408.13062 535.065552 250.032074
v  -1396.44946 524.187988 308.756927
v  -1408.30713 524.187988 249.144623
v  -1408.30615 409.339874 249.149643
v  -1396.45044 409.339905 308.752045
v  -1188.87891 570.687073 794.383789
v  -1187.82751 569.58252 795.957397
v  -1189.93005 569.58252 792.810608
v  -1183.35889 565.191162 802.64502
v  -1194.39868 565.191162 786.122864
v  -1179.52075 559.370911 808.389343
v  -1198.23706 559.370911 780.378357
v  -1176.34338 552.217773 813.144592
v  -1201.41443 552.217773 775.623108
v  -1173.96619 544.001892 816.702271
v  -1203.7915 544.001892 772.065552
v  -1172.49744 535.065735 818.900208
v  -1205.26001 535.065735 769.867798
v  -1171.99512 524.188171 819.652344
v  -1205.7627 524.188171 769.115417
v  -1205.75989 409.339996 769.119629
v  -1171.9978 409.339996 819.648193
v  -794.383179 570.687134 1188.87915
v  -792.80957 569.582581 1189.93054
v  -795.956299 569.582581 1187.828
v  -786.12207 565.191223 1194.39905
v  -802.644043 565.191223 1183.35938
v  -780.377686 559.371033 1198.2373
v  -808.388672 559.371033 1179.521
v  -775.622437 552.217834 1201.41467
v  -813.143799 552.217834 1176.34363
v  -772.064697 544.002014 1203.79187
v  -816.701294 544.001953 1173.96655
v  -769.866821 535.065796 1205.2605
v  -818.89917 535.065735 1172.49805
v  -769.114624 524.188232 1205.76306
v  -819.651611 524.188171 1171.99536
v  -819.647339 409.340088 1171.99817
v  -769.118774 409.340118 1205.76025

# 17 UV coordinates
vt 0.25 0.986419678 0
vt 0.235229492 0.979766846 0
vt 0.264648438 0.979766846 0
vt 0.172973633 0.953277588 0
vt 0.326904297 0.953277588 0
vt 0.119506836 0.918212891 0
vt 0.380371094 0.918212891 0
vt 0.0751953125 0.875061035 0
vt 0.424560547 0.875061035 0
vt 0.0420532227 0.825561523 0
vt 0.457763672 0.825561523 0
vt 0.0215911865 0.771728516 0
vt 0.478271484 0.771728516 0
vt 0.0145874023 0.706054688 0
vt 0.485351562 0.706054688 0
vt 0.485351562 0.013671875 0
vt 0.0146255493 0.013671875 0

# 51 vertex normals
vn 0.980787277 -0.000162311771 -0.195080116
vn 0.980787337 -1.83518932e-05 -0.195080146
vn 0.980787039 -2.2657905e-05 -0.195081711
vn 0.98078692 5.20697995e-06 -0.195082217
vn 0.980785787 -2.09542868e-05 -0.195087865
vn 0.980785668 2.18343321e-05 -0.195088387
vn 0.980785191 9.78324715e-06 -0.195090756
vn 0.980785191 8.21944286e-06 -0.195090815
vn 0.980785072 5.03644424e-06 -0.195091367
vn 0.980785012 -8.13519728e-06 -0.195091382
vn 0.980785191 -5.27385691e-06 -0.195090964
vn 0.980785072 -3.23411587e-06 -0.19509092
vn 0.980785251 -2.15210957e-06 -0.195090786
vn 0.980785131 1.41644944e-06 -0.195090845
vn 0.980785131 4.33109761e-07 -0.195090964
vn 0.980785072 -9.00106443e-08 -0.195091128
vn 0.980785072 -5.3841827e-08 -0.195091188
vn 0.831479251 -1.55661673e-05 -0.55555588
vn 0.831479192 3.97545227e-05 -0.55555588
vn 0.831471562 2.70806049e-06 -0.555567265
vn 0.831469178 -1.12292255e-05 -0.55557096
vn 0.831469655 -4.46167451e-06 -0.555570066
vn 0.831469893 -1.4448002e-06 -0.555569887
vn 0.831469834 -1.98055181e-06 -0.555569887
vn 0.831469834 2.7516096e-06 -0.555569947
vn 0.831469536 2.77844094e-07 -0.555570364
vn 0.831469536 8.9902087e-06 -0.555570364
vn 0.83146888 6.49326239e-07 -0.555571496
vn 0.831468761 -5.7777479e-06 -0.555571496
vn 0.831469417 6.51220589e-09 -0.555570543
vn 0.831469417 -7.76776233e-06 -0.555570424
vn 0.831470549 1.33577828e-06 -0.555568874
vn 0.831470013 3.99399482e-07 -0.555569589
vn 0.831469834 6.10304085e-07 -0.555569947
vn 0.555563331 3.08767376e-05 -0.831474245
vn 0.55556339 -1.71692755e-05 -0.831474245
vn 0.555569351 2.49595723e-06 -0.831470132
vn 0.555571377 2.71307408e-06 -0.831468761
vn 0.555570066 -5.28422925e-06 -0.831469715
vn 0.555569887 -1.38012524e-06 -0.831469774
vn 0.555570841 4.96357961e-06 -0.831469178
vn 0.55557096 1.10128246e-06 -0.831469178
vn 0.555571377 4.67237942e-06 -0.831468821
vn 0.555571437 -2.31896206e-06 -0.831468821
vn 0.555571258 -3.19091873e-06 -0.831468821
vn 0.555571318 -4.3623217e-07 -0.83146894
vn 0.555570543 -5.80477717e-06 -0.831469417
vn 0.555570483 1.07453252e-06 -0.831469536
vn 0.555569828 -2.80666563e-06 -0.831469893
vn 0.555569947 2.41382082e-07 -0.831469893
vn 0.555570006 2.12822883e-07 -0.831469774

# Mesh 'window01b_arena' with 45 faces
g window01b_arena
usemtl Material #35
f  1/1/1 2/2/2 3/3/3
f  3/3/3 2/2/2 4/4/4
f  5/5/5 3/3/3 4/4/4
f  6/6/6 5/5/5 4/4/4
f  7/7/7 5/5/5 6/6/6
f  8/8/8 7/7/7 6/6/6
f  9/9/9 7/7/7 8/8/8
f  10/10/10 9/9/9 8/8/8
f  11/11/11 9/9/9 10/10/10
f  12/12/12 11/11/11 10/10/10
f  13/13/13 11/11/11 12/12/12
f  14/14/14 13/13/13 12/12/12
f  15/15/15 13/13/13 14/14/14
f  16/16/16 15/15/15 14/14/14
f  17/17/17 16/16/16 14/14/14
f  18/1/18 19/2/19 20/3/20
f  20/3/20 19/2/19 21/4/21
f  22/5/22 20/3/20 21/4/21
f  23/6/23 22/5/22 21/4/21
f  24/7/24 22/5/22 23/6/23
f  25/8/25 24/7/24 23/6/23
f  26/9/26 24/7/24 25/8/25
f  27/10/27 26/9/26 25/8/25
f  28/11/28 26/9/26 27/10/27
f  29/12/29 28/11/28 27/10/27
f  30/13/30 28/11/28 29/12/29
f  31/14/31 30/13/30 29/12/29
f  32/15/32 30/13/30 31/14/31
f  33/16/33 32/15/32 31/14/31
f  34/17/34 33/16/33 31/14/31
f  35/1/35 36/2/36 37/3/37
f  37/3/37 36/2/36 38/4/38
f  39/5/39 37/3/37 38/4/38
f  40/6/40 39/5/39 38/4/38
f  41/7/41 39/5/39 40/6/40
f  42/8/42 41/7/41 40/6/40
f  43/9/43 41/7/41 42/8/42
f  44/10/44 43/9/43 42/8/42
f  45/11/45 43/9/43 44/10/44
f  46/12/46 45/11/45 44/10/44
f  47/13/47 45/11/45 46/12/46
f  48/14/48 47/13/47 46/12/46
f  49/15/49 47/13/47 48/14/48
f  50/16/50 49/15/49 48/14/48
f  51/17/51 50/16/50 48/14/48

