# Blender 4.0.2
# www.blender.org
mtllib window01b_arena.mtl
o window01b_arena
v -14.023782 5.706869 2.789506
v -14.020091 5.695824 2.808068
v -14.027474 5.695824 2.770950
v -14.004400 5.651910 2.886954
v -14.043165 5.651910 2.692062
v -13.990923 5.593708 2.954712
v -14.056645 5.593708 2.624301
v -13.979763 5.522176 3.010805
v -14.067801 5.522176 2.568208
v -13.971416 5.440018 3.052769
v -14.076148 5.440017 2.526246
v -13.966259 5.350656 3.078697
v -14.081306 5.350656 2.500320
v -13.964495 5.241880 3.087569
v -14.083071 5.241880 2.491446
v -14.083061 4.093399 2.491496
v -13.964504 4.093399 3.087520
v -11.888789 5.706871 7.943837
v -11.878275 5.695826 7.959573
v -11.899301 5.695826 7.928105
v -11.833589 5.651912 8.026450
v -11.943987 5.651912 7.861228
v -11.795207 5.593709 8.083893
v -11.982370 5.593709 7.803783
v -11.763433 5.522178 8.131446
v -12.014144 5.522178 7.756230
v -11.739661 5.440019 8.167023
v -12.037915 5.440019 7.720655
v -11.724974 5.350658 8.189002
v -12.052600 5.350658 7.698678
v -11.719951 5.241882 8.196524
v -12.057627 5.241882 7.691154
v -12.057599 4.093400 7.691195
v -11.719977 4.093400 8.196482
v -7.943831 5.706872 11.888791
v -7.928095 5.695827 11.899305
v -7.959563 5.695827 11.878280
v -7.861220 5.651913 11.943990
v -8.026441 5.651913 11.833593
v -7.803777 5.593711 11.982373
v -8.083886 5.593711 11.795210
v -7.756224 5.522179 12.014147
v -8.131438 5.522179 11.763436
v -7.720647 5.440021 12.037918
v -8.167013 5.440021 11.739665
v -7.698668 5.350659 12.052605
v -8.188992 5.350658 11.724980
v -7.691146 5.241883 12.057631
v -8.196516 5.241882 11.719954
v -8.196473 4.093402 11.719981
v -7.691187 4.093402 12.057602
vn 0.9808 -0.0002 -0.1951
vn 0.9808 -0.0001 -0.1951
vn 0.9808 -0.0000 -0.1951
vn 0.9808 0.0001 -0.1951
vn 0.8315 -0.0000 -0.5555
vn 0.8315 -0.0000 -0.5556
vn 0.5555 -0.0000 -0.8315
vn 0.5556 -0.0000 -0.8315
vt 0.250000 0.986420
vt 0.235229 0.979767
vt 0.264648 0.979767
vt 0.172974 0.953278
vt 0.326904 0.953278
vt 0.119507 0.918213
vt 0.380371 0.918213
vt 0.075195 0.875061
vt 0.424561 0.875061
vt 0.042053 0.825562
vt 0.457764 0.825562
vt 0.021591 0.771729
vt 0.478271 0.771729
vt 0.014587 0.706055
vt 0.485352 0.706055
vt 0.485352 0.013672
vt 0.014626 0.013672
s 0
usemtl Material_#35
f 1/1/1 2/2/1 3/3/1
f 3/3/2 2/2/2 4/4/2
f 5/5/3 3/3/3 4/4/3
f 6/6/3 5/5/3 4/4/3
f 7/7/3 5/5/3 6/6/3
f 8/8/4 7/7/4 6/6/4
f 9/9/3 7/7/3 8/8/3
f 10/10/3 9/9/3 8/8/3
f 11/11/3 9/9/3 10/10/3
f 12/12/3 11/11/3 10/10/3
f 13/13/3 11/11/3 12/12/3
f 14/14/3 13/13/3 12/12/3
f 15/15/3 13/13/3 14/14/3
f 16/16/3 15/15/3 14/14/3
f 17/17/3 16/16/3 14/14/3
f 18/1/5 19/2/5 20/3/5
f 20/3/5 19/2/5 21/4/5
f 22/5/6 20/3/6 21/4/6
f 23/6/6 22/5/6 21/4/6
f 24/7/6 22/5/6 23/6/6
f 25/8/6 24/7/6 23/6/6
f 26/9/6 24/7/6 25/8/6
f 27/10/6 26/9/6 25/8/6
f 28/11/6 26/9/6 27/10/6
f 29/12/6 28/11/6 27/10/6
f 30/13/6 28/11/6 29/12/6
f 31/14/6 30/13/6 29/12/6
f 32/15/6 30/13/6 31/14/6
f 33/16/6 32/15/6 31/14/6
f 34/17/6 33/16/6 31/14/6
f 35/1/7 36/2/7 37/3/7
f 37/3/8 36/2/8 38/4/8
f 39/5/8 37/3/8 38/4/8
f 40/6/8 39/5/8 38/4/8
f 41/7/8 39/5/8 40/6/8
f 42/8/8 41/7/8 40/6/8
f 43/9/8 41/7/8 42/8/8
f 44/10/8 43/9/8 42/8/8
f 45/11/8 43/9/8 44/10/8
f 46/12/8 45/11/8 44/10/8
f 47/13/8 45/11/8 46/12/8
f 48/14/8 47/13/8 46/12/8
f 49/15/8 47/13/8 48/14/8
f 50/16/8 49/15/8 48/14/8
f 51/17/8 50/16/8 48/14/8
