# File generated by FabConvert.com - Free Image and 3D model conversion tools

# Object001_0
o obj1
v 0.10764445 0.10200824 0.84321594
v 0.15760309 -0.0056345523 0.8438868
v 0.25363275 -0.00693542 0.6346505
v 0.17323409 0.16629617 0.6335747
v 0 0.15196636 0.84290695
v 0 0.24669324 0.6330744
v 0.107644364 -0.11327916 0.84455377
v 0 -0.16323626 0.84486526
v 0 -0.26056364 0.6362263
v 0.17323403 -0.18016717 0.6357276
v 0 -0.013059773 1.2462683
v 0 -0.0069353026 0.6346504
v 0.08411242 0.053053174 -0.8095343
v 0.06591737 0.04907411 -0.9619863
v 0 0.08695716 -0.95833164
v 0 0.10144236 -0.8054969
v 0.08410395 -0.043707594 -0.8175843
v 0.06591744 -0.026689326 -0.9692917
v 0 -0.09208212 -0.821599
v 0 -0.06457099 -0.972945
v 0.08672135 0.031966098 -0.36747932
v 0.08665653 0.041645642 -0.5744598
v 0 0.09168611 -0.57126606
v 0 0.082243875 -0.3652676
v 0.08644642 -0.06806703 -0.37189993
v 0.08650701 -0.05816306 -0.5808276
v 0 -0.11786596 -0.37411082
v 0 -0.10794497 -0.58400255
v 0.08705482 0.024300206 -0.113367364
v 0.08675253 0.030028038 -0.32374367
v 0 0.08035444 -0.32166606
v 0 0.076185964 -0.11371765
v 0.08617882 -0.077418484 -0.11286528
v 0.08642276 -0.06997173 -0.32786536
v 0 -0.12771595 -0.11271719
v 0 -0.11972937 -0.32990986
v 0.08690023 0.022786476 0.14562264
v 0.08706816 0.024697695 -0.07089721
v 0 0.07659848 -0.071594685
v 0 0.07372789 0.14523509
v 0.08629503 -0.07781721 0.14633207
v 0.086168185 -0.076993346 -0.06936098
v 0 -0.12769713 0.14664862
v 0 -0.12726308 -0.068504974
v 0.08695146 0.019189486 0.41126177
v 0.08689193 0.02324518 0.18893333
v 0 0.07417483 0.18829185
v 0 0.07038673 0.40920362
v 0.08625289 -0.081686676 0.41522428
v 0.08630047 -0.07736931 0.19026403
v 0 -0.13164873 0.41713408
v 0 -0.12725763 0.19095924
v 0.08377394 0.021857206 0.7414407
v 0.086762965 0.02097938 0.4542979
v 0 0.07203714 0.45197457
v 0 0.070177324 0.73926944
v 0.08377318 -0.07477883 0.7457842
v 0.08610365 -0.07968835 0.45899105
v 0 -0.12309731 0.74795663
v 0 -0.12956826 0.4613745
v 0 0.09346962 -0.61520565
v 0.08644527 0.04356846 -0.6184215
v 0.08631668 -0.05600083 -0.6248405
v 0 -0.10567922 -0.6280442
v 0.08064802 0.033522815 -0.5971914
v 0 0.07621347 -0.5945029
v 0.07972062 -0.049729932 -0.60238105
v 0 -0.090577096 -0.60488814
v 0.08073 0.02165898 -0.34600422
v 0 0.06448714 -0.3441783
v 0.07984981 -0.06176654 -0.34956884
v 0 -0.10282244 -0.35132217
v 0.0808654 0.014434875 -0.09202983
v 0 0.0581105 -0.09247057
v 0.08001849 -0.07018768 -0.09118192
v 0 -0.11217668 -0.09076188
v 0.08079277 0.0133614885 0.16737415
v 0 0.056513056 0.166938
v 0.07991597 -0.07046714 0.16822472
v 0 -0.11186082 0.16864346
v 0.08074912 0.010324744 0.43323803
v 0 0.053545676 0.43138558
v 0.07990906 -0.07362237 0.43684718
v 0 -0.11515784 0.43863675
v -0.10764445 0.10200824 0.84321594
v -0.17323409 0.16629617 0.6335747
v -0.25363275 -0.00693542 0.6346505
v -0.15760309 -0.0056345523 0.8438868
v -0.107644364 -0.11327916 0.84455377
v -0.17323403 -0.18016717 0.6357276
v -0.08411242 0.053053174 -0.8095343
v -0.06591737 0.04907411 -0.9619863
v -0.08410395 -0.043707594 -0.8175843
v -0.06591744 -0.026689326 -0.9692917
v -0.08672135 0.031966098 -0.36747932
v -0.08665653 0.041645642 -0.5744598
v -0.08644642 -0.06806703 -0.37189993
v -0.08650701 -0.05816306 -0.5808276
v -0.08705482 0.024300206 -0.113367364
v -0.08675253 0.030028038 -0.32374367
v -0.08617882 -0.077418484 -0.11286528
v -0.08642276 -0.06997173 -0.32786536
v -0.08690023 0.022786476 0.14562264
v -0.08706816 0.024697695 -0.07089721
v -0.08629503 -0.07781721 0.14633207
v -0.086168185 -0.076993346 -0.06936098
v -0.08695146 0.019189486 0.41126177
v -0.08689193 0.02324518 0.18893333
v -0.08625289 -0.081686676 0.41522428
v -0.08630047 -0.07736931 0.19026403
v -0.08377394 0.021857206 0.7414407
v -0.086762965 0.02097938 0.4542979
v -0.08377318 -0.07477883 0.7457842
v -0.08610365 -0.07968835 0.45899105
v -0.08644527 0.04356846 -0.6184215
v -0.08631668 -0.05600083 -0.6248405
v -0.08064802 0.033522815 -0.5971914
v -0.07972062 -0.049729932 -0.60238105
v -0.08073 0.02165898 -0.34600422
v -0.07984981 -0.06176654 -0.34956884
v -0.0808654 0.014434875 -0.09202983
v -0.08001849 -0.07018768 -0.09118192
v -0.08079277 0.0133614885 0.16737415
v -0.07991597 -0.07046714 0.16822472
v -0.08074912 0.010324744 0.43323803
v -0.07990906 -0.07362237 0.43684718
vn 0.65065587 0.654962 0.3842808
vn 0.9191431 0.004693475 0.3938959
vn 0.9088535 0.0025926847 0.41710746
vn 0.6464361 0.64893854 0.40124696
vn 0 0.91785944 0.39690563
vn 0 0.9114296 0.41145614
vn 0.6563903 -0.65207005 0.37941596
vn 0 -0.9205438 0.39063936
vn -1.1599146E-08 -0.90624434 0.42275426
vn 0.64643335 -0.6439044 0.40928116
vn 4.032674E-08 -0.015541503 0.99987924
vn 2.7140735E-14 -0.0062125046 -0.9999807
vn 0 -0.0062136482 -0.9999807
vn 2.4903761E-06 -0.0062116184 -0.9999807
vn 1.7668467E-06 -0.0062127174 -0.9999807
vn 1.2506491E-14 -0.0062158406 -0.9999807
vn 8.543402E-06 -0.006221375 -0.9999806
vn 0.86199254 0.50456345 -0.04883213
vn 0.86237496 0.49294475 -0.1153902
vn 0 0.99558145 -0.09390209
vn 1.1198943E-08 0.99971175 -0.024009028
vn 0.865292 -0.49141535 -0.09889714
vn 0.8530253 -0.49741036 -0.15789472
vn 3.347364E-08 -0.9922666 -0.12412484
vn 0 -0.9838771 -0.17884578
vn 0.86755764 0.49681845 0.022697164
vn 0.86901164 0.4942525 0.023093149
vn 0 0.99892664 0.046320345
vn 0 0.99895114 0.04578835
vn 0.8648361 -0.5014913 -0.02376906
vn 0.8632609 -0.504203 -0.023661902
vn 0 -0.9988858 -0.047192518
vn 0 -0.9988848 -0.047214434
vn 0.8752886 0.4835035 0.0097082695
vn 0.8696218 0.4935405 0.0132536795
vn 0 0.99969774 0.024584288
vn 0 0.99979913 0.020041771
vn 0.8598518 -0.51023656 -0.017708817
vn 0.86453867 -0.5022639 -0.017430114
vn 5.557112E-09 -0.9993967 -0.034731537
vn 0 -0.9993246 -0.036747087
vn 0.8717617 0.4898882 0.0064101038
vn 0.868322 0.49598035 0.0045095384
vn 0 0.999946 0.0103903795
vn 0 0.9999124 0.013237787
vn 0.86301893 -0.5051681 -0.0018867523
vn 0.8672672 -0.4978403 -0.0016476737
vn -5.4966556E-09 -0.9999936 -0.003569154
vn 0 -0.999998 -0.0020173106
vn 0.8774009 0.47968817 0.008186689
vn 0.86479497 0.5020423 0.009123213
vn -2.2208278E-08 0.9998411 0.017827312
vn 0 0.999853 0.017145118
vn 0.8564306 -0.516167 -0.009916993
vn 0.8691346 -0.49448568 -0.009430722
vn 0 -0.9998165 -0.019158166
vn 0 -0.9998116 -0.019410923
vn 0.8710444 0.49112317 0.00892596
vn 0.86406046 0.50334644 0.0064726197
vn 0 0.99999285 0.0037808896
vn 0 0.999979 0.00647338
vn 0.86115646 -0.5080651 0.01671414
vn 0.8694739 -0.49372593 0.01580754
vn -5.5171743E-09 -0.99975866 0.021968918
vn 0 -0.9997452 0.022573981
vn -5.517713E-09 0.99910384 0.042325642
vn 0.8653528 0.5009591 0.01429895
vn 0.86667436 -0.49711257 -0.04188886
vn 0 -0.9975416 -0.07007664
vn 0.9005515 0.43419895 0.021869687
vn 0.7696061 0.46753135 0.43488032
vn -3.2049E-09 0.78287774 0.6221756
vn -8.171328E-09 0.9978346 0.065773174
vn 0.88068634 -0.47216025 -0.03816109
vn 0.75884455 -0.52325165 0.38776627
vn -1.0860098E-08 -0.99713033 -0.07570438
vn 0 -0.83760434 0.5462774
vn 0.9022154 0.43074375 0.021614462
vn 0.76108295 0.47413373 0.4426624
vn 9.6768105E-09 0.77987623 0.62593377
vn -5.483838E-09 0.998312 0.058078814
vn 0.8802639 -0.47354716 -0.029807847
vn 0.76397574 -0.5145118 0.38938242
vn -1.08186216E-08 -0.9981444 -0.060891204
vn 0 -0.8345585 0.5509194
vn 0.90965825 0.41535434 0.0016270092
vn 0.75117135 0.48865515 0.44379926
vn 6.583458E-09 0.77819896 0.6280178
vn 1.410034E-09 0.99997413 0.007190704
vn 0.8814072 -0.47235128 -0.0023709498
vn 0.7681558 -0.49854186 0.4017371
vn -1.0747176E-08 -0.9999763 -0.006891283
vn 0 -0.81624204 0.5777101
vn 0.90522355 0.42493552 0.00026993678
vn 0.75748175 0.4932353 0.42771524
vn 0 0.79852474 0.60196203
vn -1.3860536E-08 0.9999841 0.005639736
vn 0.8802495 -0.47449633 -0.0037458946
vn 0.7661751 -0.49653777 0.40795344
vn 0 -0.99997014 -0.0077253412
vn 0 -0.81153405 0.58430517
vn 0.9064652 0.4221761 -0.00939301
vn 0.7551595 0.50525993 0.41766796
vn 3.2641936E-09 0.81139123 0.5845035
vn 1.1140973E-08 0.9997009 -0.024456343
vn 0.8807054 -0.47340176 0.015772415
vn 0.7664554 -0.48332906 0.42301196
vn 0 -0.9996185 0.027621858
vn 0 -0.793508 0.60855985
vn 0.74656206 0.53056806 -0.4014257
vn 0 0.83235824 -0.554238
vn 0.7803152 -0.46124262 -0.4223309
vn 1.2765687E-08 -0.78825194 -0.61535263
vn 0.748105 0.51945525 -0.4129227
vn 0 0.8173726 -0.57610935
vn 0.7784905 -0.47336012 -0.4121684
vn 0 -0.8027013 -0.59638125
vn 0.73605293 0.4868914 -0.4702795
vn 0 0.7486255 -0.66299313
vn 0.78211874 -0.49720553 -0.37560213
vn -1.2789266E-08 -0.8427464 -0.5383108
vn 0.7429545 0.4930521 -0.45267895
vn 0 0.77057797 -0.63734573
vn 0.78061557 -0.4961128 -0.3801466
vn 1.27560895E-08 -0.8389211 -0.54425305
vn 0.78277093 -0.5093011 -0.3576059
vn 0.7419162 0.4775729 -0.47062147
vn 0 -0.8594022 -0.5113002
vn 0 0.7439881 -0.66819286
vn -0.6506558 0.65496206 0.38428083
vn -0.6464361 0.64893854 0.40124696
vn -0.9088535 0.0025926847 0.41710746
vn -0.9191431 0.0046934555 0.39389592
vn -0.6563903 -0.65207005 0.37941596
vn -0.64643335 -0.6439044 0.40928116
vn -1.7668468E-06 -0.0062126727 -0.9999807
vn -2.4903761E-06 -0.0062116184 -0.9999807
vn -8.543402E-06 -0.006221375 -0.9999806
vn -0.86199254 0.5045635 -0.04883211
vn -0.86237496 0.49294475 -0.1153902
vn -0.865292 -0.49141535 -0.09889714
vn -0.8530253 -0.4974104 -0.15789475
vn -0.86755764 0.49681845 0.022697164
vn -0.8690116 0.49425256 0.023093147
vn -0.8648361 -0.5014913 -0.02376906
vn -0.8632609 -0.5042031 -0.023661898
vn -0.8752886 0.4835035 0.0097082695
vn -0.8696218 0.4935405 0.0132536795
vn -0.8598518 -0.51023656 -0.017708817
vn -0.86453867 -0.5022639 -0.017430114
vn -0.8717617 0.4898882 0.0064101038
vn -0.868322 0.49598035 0.0045095384
vn -0.86301893 -0.5051681 -0.0018867523
vn -0.8672672 -0.4978403 -0.0016476737
vn -0.8774009 0.47968817 0.008186689
vn -0.8647949 0.50204235 0.009123232
vn -0.8564306 -0.516167 -0.009916993
vn -0.8691346 -0.4944857 -0.009430761
vn -0.8710444 0.49112317 0.00892596
vn -0.86406046 0.5033464 0.00647263
vn -0.86115646 -0.5080651 0.01671414
vn -0.8694739 -0.49372593 0.01580754
vn -0.8653528 0.5009591 0.01429895
vn -0.86667436 -0.49711257 -0.04188886
vn -0.9005515 0.43419892 0.021869691
vn -0.7696061 0.46753135 0.43488032
vn -0.88068634 -0.47216025 -0.03816109
vn -0.75884455 -0.52325165 0.38776624
vn -0.9022154 0.43074375 0.021614462
vn -0.76108295 0.47413373 0.4426624
vn -0.8802639 -0.47354716 -0.029807841
vn -0.76397574 -0.51451176 0.38938242
vn -0.90965825 0.41535434 0.0016270092
vn -0.75117135 0.48865515 0.44379926
vn -0.8814072 -0.47235128 -0.0023709498
vn -0.7681558 -0.49854186 0.4017371
vn -0.9052236 0.42493552 0.00026995927
vn -0.75748175 0.4932353 0.42771524
vn -0.8802495 -0.47449633 -0.0037458946
vn -0.76617503 -0.49653777 0.40795347
vn -0.9064652 0.4221761 -0.00939301
vn -0.7551595 0.50525993 0.41766796
vn -0.8807054 -0.47340176 0.015772415
vn -0.7664554 -0.48332906 0.42301196
vn -0.74656206 0.53056806 -0.4014257
vn -0.7803152 -0.46124262 -0.4223309
vn -0.748105 0.51945525 -0.4129227
vn -0.7784905 -0.47336012 -0.4121684
vn -0.73605293 0.4868914 -0.4702795
vn -0.78211874 -0.49720553 -0.37560213
vn -0.7429545 0.4930521 -0.45267895
vn -0.78061557 -0.4961128 -0.3801466
vn -0.78277093 -0.5093011 -0.3576059
vn -0.7419161 0.4775729 -0.4706215
vt 0.4617633 0.3865819 
vt 0.49352786 0.40239716 
vt 0.5346362 0.3471967 
vt 0.48384938 0.32175487 
vt 0.4247453 0.37992603 
vt 0.4247453 0.3109737 
vt 0.4247453 0.5095784 
vt 0.6085616 0.8480495 
vt 0.6538004 0.8972852 
vt 0.6058315 0.9125768 
vt 0.5593255 0.89328814 
vt 0.5633227 0.79881346 
vt 0.54403406 0.84531915 
vt 0.47170305 0.17853893 
vt 0.48211777 0.17853893 
vt 0.48211777 0.20345208 
vt 0.47170305 0.20345208 
vt 0.47170305 0.15635517 
vt 0.48211777 0.15635517 
vt 0.47170305 0.11588598 
vt 0.48211777 0.11588598 
vt 0.3245089 0.17853893 
vt 0.3959636 0.17853893 
vt 0.3959636 0.20345208 
vt 0.3245089 0.20345208 
vt 0.3245089 0.15635517 
vt 0.3959636 0.15635517 
vt 0.3245089 0.11588598 
vt 0.3959636 0.11588598 
vt 0.24450755 0.17853893 
vt 0.30991566 0.17853893 
vt 0.30991566 0.20345208 
vt 0.24450755 0.20345208 
vt 0.24450755 0.15635517 
vt 0.30991566 0.15635517 
vt 0.24450755 0.11588598 
vt 0.30991566 0.11588598 
vt 0.15794498 0.17853893 
vt 0.23041457 0.17853893 
vt 0.23041457 0.20345208 
vt 0.15794498 0.20345208 
vt 0.15794498 0.15635517 
vt 0.23041457 0.15635517 
vt 0.15794498 0.11588598 
vt 0.23041457 0.11588598 
vt 0.078868106 0.17853893 
vt 0.14475775 0.17853893 
vt 0.14475775 0.20345208 
vt 0.078868106 0.20345208 
vt 0.078868106 0.15635517 
vt 0.14475775 0.15635517 
vt 0.078868106 0.11588598 
vt 0.14475775 0.11588598 
vt 0.009821898 0.17853893 
vt 0.067547925 0.17853893 
vt 0.067547925 0.20345208 
vt 0.009821898 0.20345208 
vt 0.009821898 0.15635517 
vt 0.067547925 0.15635517 
vt 0.009821898 0.11588598 
vt 0.067547925 0.11588598 
vt 0.41080016 0.20345208 
vt 0.41080016 0.17853893 
vt 0.41080016 0.15635517 
vt 0.41080016 0.11588598 
vt 0.4034047 0.17853893 
vt 0.4034047 0.20345208 
vt 0.4034047 0.15635517 
vt 0.4034047 0.11588896 
vt 0.31718248 0.17853893 
vt 0.31718248 0.20345208 
vt 0.31718248 0.15635517 
vt 0.31718248 0.11588598 
vt 0.23732114 0.17853893 
vt 0.23732114 0.20345208 
vt 0.23732114 0.15635517 
vt 0.23732114 0.11588598 
vt 0.1511985 0.17853893 
vt 0.1511985 0.20345208 
vt 0.1511985 0.15635517 
vt 0.1511985 0.11588598 
vt 0.07296641 0.17853893 
vt 0.07296641 0.20345172 
vt 0.07296641 0.15635517 
vt 0.07296635 0.11588771 

f 1/1/1 2/2/2 3/3/3
f 3/3/3 4/4/4 1/1/1
f 5/5/5 1/1/1 4/4/4
f 4/4/4 6/6/6 5/5/5
f 7/1/7 8/5/8 9/6/9
f 9/6/9 10/4/10 7/1/7
f 2/2/2 7/1/7 10/4/10
f 10/4/10 3/3/3 2/2/2
f 2/2/2 1/1/1 11/7/11
f 1/1/1 5/5/5 11/7/11
f 8/5/8 7/1/7 11/7/11
f 7/1/7 2/2/2 11/7/11
f 12/8/12 6/9/13 4/10/14
f 4/10/14 3/11/15 12/8/12
f 9/12/16 12/8/12 3/11/15
f 3/11/15 10/13/17 9/12/16
f 13/14/18 14/15/19 15/16/20
f 15/16/20 16/17/21 13/14/18
f 17/18/22 18/19/23 14/15/19
f 14/15/19 13/14/18 17/18/22
f 19/20/24 20/21/25 18/19/23
f 18/19/23 17/18/22 19/20/24
f 21/22/26 22/23/27 23/24/28
f 23/24/28 24/25/29 21/22/26
f 25/26/30 26/27/31 22/23/27
f 22/23/27 21/22/26 25/26/30
f 27/28/32 28/29/33 26/27/31
f 26/27/31 25/26/30 27/28/32
f 29/30/34 30/31/35 31/32/36
f 31/32/36 32/33/37 29/30/34
f 33/34/38 34/35/39 30/31/35
f 30/31/35 29/30/34 33/34/38
f 35/36/40 36/37/41 34/35/39
f 34/35/39 33/34/38 35/36/40
f 37/38/42 38/39/43 39/40/44
f 39/40/44 40/41/45 37/38/42
f 41/42/46 42/43/47 38/39/43
f 38/39/43 37/38/42 41/42/46
f 43/44/48 44/45/49 42/43/47
f 42/43/47 41/42/46 43/44/48
f 45/46/50 46/47/51 47/48/52
f 47/48/52 48/49/53 45/46/50
f 49/50/54 50/51/55 46/47/51
f 46/47/51 45/46/50 49/50/54
f 51/52/56 52/53/57 50/51/55
f 50/51/55 49/50/54 51/52/56
f 53/54/58 54/55/59 55/56/60
f 55/56/60 56/57/61 53/54/58
f 57/58/62 58/59/63 54/55/59
f 54/55/59 53/54/58 57/58/62
f 59/60/64 60/61/65 58/59/63
f 58/59/63 57/58/62 59/60/64
f 13/14/18 16/17/21 61/62/66
f 61/62/66 62/63/67 13/14/18
f 63/64/68 17/18/22 13/14/18
f 13/14/18 62/63/67 63/64/68
f 19/20/24 17/18/22 63/64/68
f 63/64/68 64/65/69 19/20/24
f 65/66/70 62/63/71 61/62/72
f 61/62/72 66/67/73 65/66/70
f 67/68/74 63/64/75 62/63/71
f 62/63/71 65/66/70 67/68/74
f 68/69/76 64/65/77 63/64/75
f 63/64/75 67/68/74 68/69/76
f 69/70/78 21/22/79 24/25/80
f 24/25/80 70/71/81 69/70/78
f 71/72/82 25/26/83 21/22/79
f 21/22/79 69/70/78 71/72/82
f 72/73/84 27/28/85 25/26/83
f 25/26/83 71/72/82 72/73/84
f 73/74/86 29/30/87 32/33/88
f 32/33/88 74/75/89 73/74/86
f 75/76/90 33/34/91 29/30/87
f 29/30/87 73/74/86 75/76/90
f 76/77/92 35/36/93 33/34/91
f 33/34/91 75/76/90 76/77/92
f 77/78/94 37/38/95 40/41/96
f 40/41/96 78/79/97 77/78/94
f 79/80/98 41/42/99 37/38/95
f 37/38/95 77/78/94 79/80/98
f 80/81/100 43/44/101 41/42/99
f 41/42/99 79/80/98 80/81/100
f 81/82/102 45/46/103 48/49/104
f 48/49/104 82/83/105 81/82/102
f 83/84/106 49/50/107 45/46/103
f 45/46/103 81/82/102 83/84/106
f 84/85/108 51/52/109 49/50/107
f 49/50/107 83/84/106 84/85/108
f 22/23/110 65/66/70 66/67/73
f 66/67/73 23/24/111 22/23/110
f 26/27/112 67/68/74 65/66/70
f 65/66/70 22/23/110 26/27/112
f 28/29/113 68/69/76 67/68/74
f 67/68/74 26/27/112 28/29/113
f 30/31/114 69/70/78 70/71/81
f 70/71/81 31/32/115 30/31/114
f 34/35/116 71/72/82 69/70/78
f 69/70/78 30/31/114 34/35/116
f 36/37/117 72/73/84 71/72/82
f 71/72/82 34/35/116 36/37/117
f 38/39/118 73/74/86 74/75/89
f 74/75/89 39/40/119 38/39/118
f 42/43/120 75/76/90 73/74/86
f 73/74/86 38/39/118 42/43/120
f 44/45/121 76/77/92 75/76/90
f 75/76/90 42/43/120 44/45/121
f 46/47/122 77/78/94 78/79/97
f 78/79/97 47/48/123 46/47/122
f 50/51/124 79/80/98 77/78/94
f 77/78/94 46/47/122 50/51/124
f 52/53/125 80/81/100 79/80/98
f 79/80/98 50/51/124 52/53/125
f 58/59/126 83/84/106 81/82/102
f 81/82/102 54/55/127 58/59/126
f 60/61/128 84/85/108 83/84/106
f 83/84/106 58/59/126 60/61/128
f 82/83/105 55/56/129 54/55/127
f 54/55/127 81/82/102 82/83/105
f 85/1/130 86/4/131 87/3/132
f 87/3/132 88/2/133 85/1/130
f 5/5/5 6/6/6 86/4/131
f 86/4/131 85/1/130 5/5/5
f 89/1/134 90/4/135 9/6/9
f 9/6/9 8/5/8 89/1/134
f 88/2/133 87/3/132 90/4/135
f 90/4/135 89/1/134 88/2/133
f 88/2/133 11/7/11 85/1/130
f 85/1/130 11/7/11 5/5/5
f 8/5/8 11/7/11 89/1/134
f 89/1/134 11/7/11 88/2/133
f 12/8/12 87/11/136 86/10/137
f 86/10/137 6/9/13 12/8/12
f 9/12/16 90/13/138 87/11/136
f 87/11/136 12/8/12 9/12/16
f 91/14/139 16/17/21 15/16/20
f 15/16/20 92/15/140 91/14/139
f 93/18/141 91/14/139 92/15/140
f 92/15/140 94/19/142 93/18/141
f 19/20/24 93/18/141 94/19/142
f 94/19/142 20/21/25 19/20/24
f 95/22/143 24/25/29 23/24/28
f 23/24/28 96/23/144 95/22/143
f 97/26/145 95/22/143 96/23/144
f 96/23/144 98/27/146 97/26/145
f 27/28/32 97/26/145 98/27/146
f 98/27/146 28/29/33 27/28/32
f 99/30/147 32/33/37 31/32/36
f 31/32/36 100/31/148 99/30/147
f 101/34/149 99/30/147 100/31/148
f 100/31/148 102/35/150 101/34/149
f 35/36/40 101/34/149 102/35/150
f 102/35/150 36/37/41 35/36/40
f 103/38/151 40/41/45 39/40/44
f 39/40/44 104/39/152 103/38/151
f 105/42/153 103/38/151 104/39/152
f 104/39/152 106/43/154 105/42/153
f 43/44/48 105/42/153 106/43/154
f 106/43/154 44/45/49 43/44/48
f 107/46/155 48/49/53 47/48/52
f 47/48/52 108/47/156 107/46/155
f 109/50/157 107/46/155 108/47/156
f 108/47/156 110/51/158 109/50/157
f 51/52/56 109/50/157 110/51/158
f 110/51/158 52/53/57 51/52/56
f 111/54/159 56/57/61 55/56/60
f 55/56/60 112/55/160 111/54/159
f 113/58/161 111/54/159 112/55/160
f 112/55/160 114/59/162 113/58/161
f 59/60/64 113/58/161 114/59/162
f 114/59/162 60/61/65 59/60/64
f 91/14/139 115/63/163 61/62/66
f 61/62/66 16/17/21 91/14/139
f 116/64/164 115/63/163 91/14/139
f 91/14/139 93/18/141 116/64/164
f 19/20/24 64/65/69 116/64/164
f 116/64/164 93/18/141 19/20/24
f 117/66/165 66/67/73 61/62/72
f 61/62/72 115/63/166 117/66/165
f 118/68/167 117/66/165 115/63/166
f 115/63/166 116/64/168 118/68/167
f 68/69/76 118/68/167 116/64/168
f 116/64/168 64/65/77 68/69/76
f 119/70/169 70/71/81 24/25/80
f 24/25/80 95/22/170 119/70/169
f 120/72/171 119/70/169 95/22/170
f 95/22/170 97/26/172 120/72/171
f 72/73/84 120/72/171 97/26/172
f 97/26/172 27/28/85 72/73/84
f 121/74/173 74/75/89 32/33/88
f 32/33/88 99/30/174 121/74/173
f 122/76/175 121/74/173 99/30/174
f 99/30/174 101/34/176 122/76/175
f 76/77/92 122/76/175 101/34/176
f 101/34/176 35/36/93 76/77/92
f 123/78/177 78/79/97 40/41/96
f 40/41/96 103/38/178 123/78/177
f 124/80/179 123/78/177 103/38/178
f 103/38/178 105/42/180 124/80/179
f 80/81/100 124/80/179 105/42/180
f 105/42/180 43/44/101 80/81/100
f 125/82/181 82/83/105 48/49/104
f 48/49/104 107/46/182 125/82/181
f 126/84/183 125/82/181 107/46/182
f 107/46/182 109/50/184 126/84/183
f 84/85/108 126/84/183 109/50/184
f 109/50/184 51/52/109 84/85/108
f 96/23/185 23/24/111 66/67/73
f 66/67/73 117/66/165 96/23/185
f 98/27/186 96/23/185 117/66/165
f 117/66/165 118/68/167 98/27/186
f 28/29/113 98/27/186 118/68/167
f 118/68/167 68/69/76 28/29/113
f 100/31/187 31/32/115 70/71/81
f 70/71/81 119/70/169 100/31/187
f 102/35/188 100/31/187 119/70/169
f 119/70/169 120/72/171 102/35/188
f 36/37/117 102/35/188 120/72/171
f 120/72/171 72/73/84 36/37/117
f 104/39/189 39/40/119 74/75/89
f 74/75/89 121/74/173 104/39/189
f 106/43/190 104/39/189 121/74/173
f 121/74/173 122/76/175 106/43/190
f 44/45/121 106/43/190 122/76/175
f 122/76/175 76/77/92 44/45/121
f 108/47/191 47/48/123 78/79/97
f 78/79/97 123/78/177 108/47/191
f 110/51/192 108/47/191 123/78/177
f 123/78/177 124/80/179 110/51/192
f 52/53/125 110/51/192 124/80/179
f 124/80/179 80/81/100 52/53/125
f 114/59/193 112/55/194 125/82/181
f 125/82/181 126/84/183 114/59/193
f 60/61/128 114/59/193 126/84/183
f 126/84/183 84/85/108 60/61/128
f 82/83/105 125/82/181 112/55/194
f 112/55/194 55/56/129 82/83/105
# Vertices: 126, normals: 194, texture coordinates: 85, faces: 236

